<?xml version="1.0" encoding="utf-8" standalone="no"?>
<!DOCTYPE svg PUBLIC "-//W3C//DTD SVG 1.1//EN"
  "http://www.w3.org/Graphics/SVG/1.1/DTD/svg11.dtd">
<svg xmlns:xlink="http://www.w3.org/1999/xlink" width="864pt" height="360pt" viewBox="0 0 864 360" xmlns="http://www.w3.org/2000/svg" version="1.1">
 <metadata>
  <rdf:RDF xmlns:dc="http://purl.org/dc/elements/1.1/" xmlns:cc="http://creativecommons.org/ns#" xmlns:rdf="http://www.w3.org/1999/02/22-rdf-syntax-ns#">
   <cc:Work>
    <dc:type rdf:resource="http://purl.org/dc/dcmitype/StillImage"/>
    <dc:date>2026-07-17T09:37:59.613839</dc:date>
    <dc:format>image/svg+xml</dc:format>
    <dc:creator>
     <cc:Agent>
      <dc:title>Matplotlib v3.10.9, https://matplotlib.org/</dc:title>
     </cc:Agent>
    </dc:creator>
   </cc:Work>
  </rdf:RDF>
 </metadata>
 <defs>
  <style type="text/css">*{stroke-linejoin: round; stroke-linecap: butt}</style>
 </defs>
 <g id="figure_1">
  <g id="patch_1">
   <path d="M 0 360 
L 864 360 
L 864 0 
L 0 0 
z
" style="fill: #ffffff"/>
  </g>
  <g id="axes_1">
   <g id="patch_2">
    <path d="M 135.603365 326.64351 
L 860.99976 326.64351 
L 860.99976 18.118365 
L 135.603365 18.118365 
z
" style="fill: #ffffff"/>
   </g>
   <g id="matplotlib.axis_1">
    <g id="xtick_1">
     <g id="line2d_1">
      <path d="M 149.966654 326.64351 
L 149.966654 18.118365 
" clip-path="url(#pb331927746)" style="fill: none; stroke: #d9d9d9; stroke-width: 0.7; stroke-linecap: square"/>
     </g>
     <g id="line2d_2">
      <defs>
       <path id="m61195168b5" d="M 0 0 
L 0 3.5 
" style="stroke: #000000; stroke-width: 0.8"/>
      </defs>
      <g>
       <use xlink:href="#m61195168b5" x="149.966654" y="326.64351" style="stroke: #000000; stroke-width: 0.8"/>
      </g>
     </g>
     <g id="text_1">
      <!-- 0 -->
      <g transform="translate(146.785404 341.241947) scale(0.1 -0.1)">
       <defs>
        <path id="DejaVuSans-30" d="M 2034 4250 
Q 1547 4250 1301 3770 
Q 1056 3291 1056 2328 
Q 1056 1369 1301 889 
Q 1547 409 2034 409 
Q 2525 409 2770 889 
Q 3016 1369 3016 2328 
Q 3016 3291 2770 3770 
Q 2525 4250 2034 4250 
z
M 2034 4750 
Q 2819 4750 3233 4129 
Q 3647 3509 3647 2328 
Q 3647 1150 3233 529 
Q 2819 -91 2034 -91 
Q 1250 -91 836 529 
Q 422 1150 422 2328 
Q 422 3509 836 4129 
Q 1250 4750 2034 4750 
z
" transform="scale(0.015625)"/>
       </defs>
       <use xlink:href="#DejaVuSans-30"/>
      </g>
     </g>
    </g>
    <g id="xtick_2">
     <g id="line2d_3">
      <path d="M 271.959483 326.64351 
L 271.959483 18.118365 
" clip-path="url(#pb331927746)" style="fill: none; stroke: #d9d9d9; stroke-width: 0.7; stroke-linecap: square"/>
     </g>
     <g id="line2d_4">
      <g>
       <use xlink:href="#m61195168b5" x="271.959483" y="326.64351" style="stroke: #000000; stroke-width: 0.8"/>
      </g>
     </g>
     <g id="text_2">
      <!-- 2 -->
      <g transform="translate(268.778233 341.241947) scale(0.1 -0.1)">
       <defs>
        <path id="DejaVuSans-32" d="M 1228 531 
L 3431 531 
L 3431 0 
L 469 0 
L 469 531 
Q 828 903 1448 1529 
Q 2069 2156 2228 2338 
Q 2531 2678 2651 2914 
Q 2772 3150 2772 3378 
Q 2772 3750 2511 3984 
Q 2250 4219 1831 4219 
Q 1534 4219 1204 4116 
Q 875 4013 500 3803 
L 500 4441 
Q 881 4594 1212 4672 
Q 1544 4750 1819 4750 
Q 2544 4750 2975 4387 
Q 3406 4025 3406 3419 
Q 3406 3131 3298 2873 
Q 3191 2616 2906 2266 
Q 2828 2175 2409 1742 
Q 1991 1309 1228 531 
z
" transform="scale(0.015625)"/>
       </defs>
       <use xlink:href="#DejaVuSans-32"/>
      </g>
     </g>
    </g>
    <g id="xtick_3">
     <g id="line2d_5">
      <path d="M 393.952312 326.64351 
L 393.952312 18.118365 
" clip-path="url(#pb331927746)" style="fill: none; stroke: #d9d9d9; stroke-width: 0.7; stroke-linecap: square"/>
     </g>
     <g id="line2d_6">
      <g>
       <use xlink:href="#m61195168b5" x="393.952312" y="326.64351" style="stroke: #000000; stroke-width: 0.8"/>
      </g>
     </g>
     <g id="text_3">
      <!-- 4 -->
      <g transform="translate(390.771062 341.241947) scale(0.1 -0.1)">
       <defs>
        <path id="DejaVuSans-34" d="M 2419 4116 
L 825 1625 
L 2419 1625 
L 2419 4116 
z
M 2253 4666 
L 3047 4666 
L 3047 1625 
L 3713 1625 
L 3713 1100 
L 3047 1100 
L 3047 0 
L 2419 0 
L 2419 1100 
L 313 1100 
L 313 1709 
L 2253 4666 
z
" transform="scale(0.015625)"/>
       </defs>
       <use xlink:href="#DejaVuSans-34"/>
      </g>
     </g>
    </g>
    <g id="xtick_4">
     <g id="line2d_7">
      <path d="M 515.945141 326.64351 
L 515.945141 18.118365 
" clip-path="url(#pb331927746)" style="fill: none; stroke: #d9d9d9; stroke-width: 0.7; stroke-linecap: square"/>
     </g>
     <g id="line2d_8">
      <g>
       <use xlink:href="#m61195168b5" x="515.945141" y="326.64351" style="stroke: #000000; stroke-width: 0.8"/>
      </g>
     </g>
     <g id="text_4">
      <!-- 6 -->
      <g transform="translate(512.763891 341.241947) scale(0.1 -0.1)">
       <defs>
        <path id="DejaVuSans-36" d="M 2113 2584 
Q 1688 2584 1439 2293 
Q 1191 2003 1191 1497 
Q 1191 994 1439 701 
Q 1688 409 2113 409 
Q 2538 409 2786 701 
Q 3034 994 3034 1497 
Q 3034 2003 2786 2293 
Q 2538 2584 2113 2584 
z
M 3366 4563 
L 3366 3988 
Q 3128 4100 2886 4159 
Q 2644 4219 2406 4219 
Q 1781 4219 1451 3797 
Q 1122 3375 1075 2522 
Q 1259 2794 1537 2939 
Q 1816 3084 2150 3084 
Q 2853 3084 3261 2657 
Q 3669 2231 3669 1497 
Q 3669 778 3244 343 
Q 2819 -91 2113 -91 
Q 1303 -91 875 529 
Q 447 1150 447 2328 
Q 447 3434 972 4092 
Q 1497 4750 2381 4750 
Q 2619 4750 2861 4703 
Q 3103 4656 3366 4563 
z
" transform="scale(0.015625)"/>
       </defs>
       <use xlink:href="#DejaVuSans-36"/>
      </g>
     </g>
    </g>
    <g id="xtick_5">
     <g id="line2d_9">
      <path d="M 637.93797 326.64351 
L 637.93797 18.118365 
" clip-path="url(#pb331927746)" style="fill: none; stroke: #d9d9d9; stroke-width: 0.7; stroke-linecap: square"/>
     </g>
     <g id="line2d_10">
      <g>
       <use xlink:href="#m61195168b5" x="637.93797" y="326.64351" style="stroke: #000000; stroke-width: 0.8"/>
      </g>
     </g>
     <g id="text_5">
      <!-- 8 -->
      <g transform="translate(634.75672 341.241947) scale(0.1 -0.1)">
       <defs>
        <path id="DejaVuSans-38" d="M 2034 2216 
Q 1584 2216 1326 1975 
Q 1069 1734 1069 1313 
Q 1069 891 1326 650 
Q 1584 409 2034 409 
Q 2484 409 2743 651 
Q 3003 894 3003 1313 
Q 3003 1734 2745 1975 
Q 2488 2216 2034 2216 
z
M 1403 2484 
Q 997 2584 770 2862 
Q 544 3141 544 3541 
Q 544 4100 942 4425 
Q 1341 4750 2034 4750 
Q 2731 4750 3128 4425 
Q 3525 4100 3525 3541 
Q 3525 3141 3298 2862 
Q 3072 2584 2669 2484 
Q 3125 2378 3379 2068 
Q 3634 1759 3634 1313 
Q 3634 634 3220 271 
Q 2806 -91 2034 -91 
Q 1263 -91 848 271 
Q 434 634 434 1313 
Q 434 1759 690 2068 
Q 947 2378 1403 2484 
z
M 1172 3481 
Q 1172 3119 1398 2916 
Q 1625 2713 2034 2713 
Q 2441 2713 2670 2916 
Q 2900 3119 2900 3481 
Q 2900 3844 2670 4047 
Q 2441 4250 2034 4250 
Q 1625 4250 1398 4047 
Q 1172 3844 1172 3481 
z
" transform="scale(0.015625)"/>
       </defs>
       <use xlink:href="#DejaVuSans-38"/>
      </g>
     </g>
    </g>
    <g id="xtick_6">
     <g id="line2d_11">
      <path d="M 759.930799 326.64351 
L 759.930799 18.118365 
" clip-path="url(#pb331927746)" style="fill: none; stroke: #d9d9d9; stroke-width: 0.7; stroke-linecap: square"/>
     </g>
     <g id="line2d_12">
      <g>
       <use xlink:href="#m61195168b5" x="759.930799" y="326.64351" style="stroke: #000000; stroke-width: 0.8"/>
      </g>
     </g>
     <g id="text_6">
      <!-- 10 -->
      <g transform="translate(753.568299 341.241947) scale(0.1 -0.1)">
       <defs>
        <path id="DejaVuSans-31" d="M 794 531 
L 1825 531 
L 1825 4091 
L 703 3866 
L 703 4441 
L 1819 4666 
L 2450 4666 
L 2450 531 
L 3481 531 
L 3481 0 
L 794 0 
L 794 531 
z
" transform="scale(0.015625)"/>
       </defs>
       <use xlink:href="#DejaVuSans-31"/>
       <use xlink:href="#DejaVuSans-30" transform="translate(63.623047 0)"/>
      </g>
     </g>
    </g>
    <g id="text_7">
     <!-- Million transfers / second -->
     <g transform="translate(435.56875 354.920073) scale(0.1 -0.1)">
      <defs>
       <path id="DejaVuSans-4d" d="M 628 4666 
L 1569 4666 
L 2759 1491 
L 3956 4666 
L 4897 4666 
L 4897 0 
L 4281 0 
L 4281 4097 
L 3078 897 
L 2444 897 
L 1241 4097 
L 1241 0 
L 628 0 
L 628 4666 
z
" transform="scale(0.015625)"/>
       <path id="DejaVuSans-69" d="M 603 3500 
L 1178 3500 
L 1178 0 
L 603 0 
L 603 3500 
z
M 603 4863 
L 1178 4863 
L 1178 4134 
L 603 4134 
L 603 4863 
z
" transform="scale(0.015625)"/>
       <path id="DejaVuSans-6c" d="M 603 4863 
L 1178 4863 
L 1178 0 
L 603 0 
L 603 4863 
z
" transform="scale(0.015625)"/>
       <path id="DejaVuSans-6f" d="M 1959 3097 
Q 1497 3097 1228 2736 
Q 959 2375 959 1747 
Q 959 1119 1226 758 
Q 1494 397 1959 397 
Q 2419 397 2687 759 
Q 2956 1122 2956 1747 
Q 2956 2369 2687 2733 
Q 2419 3097 1959 3097 
z
M 1959 3584 
Q 2709 3584 3137 3096 
Q 3566 2609 3566 1747 
Q 3566 888 3137 398 
Q 2709 -91 1959 -91 
Q 1206 -91 779 398 
Q 353 888 353 1747 
Q 353 2609 779 3096 
Q 1206 3584 1959 3584 
z
" transform="scale(0.015625)"/>
       <path id="DejaVuSans-6e" d="M 3513 2113 
L 3513 0 
L 2938 0 
L 2938 2094 
Q 2938 2591 2744 2837 
Q 2550 3084 2163 3084 
Q 1697 3084 1428 2787 
Q 1159 2491 1159 1978 
L 1159 0 
L 581 0 
L 581 3500 
L 1159 3500 
L 1159 2956 
Q 1366 3272 1645 3428 
Q 1925 3584 2291 3584 
Q 2894 3584 3203 3211 
Q 3513 2838 3513 2113 
z
" transform="scale(0.015625)"/>
       <path id="DejaVuSans-20" transform="scale(0.015625)"/>
       <path id="DejaVuSans-74" d="M 1172 4494 
L 1172 3500 
L 2356 3500 
L 2356 3053 
L 1172 3053 
L 1172 1153 
Q 1172 725 1289 603 
Q 1406 481 1766 481 
L 2356 481 
L 2356 0 
L 1766 0 
Q 1100 0 847 248 
Q 594 497 594 1153 
L 594 3053 
L 172 3053 
L 172 3500 
L 594 3500 
L 594 4494 
L 1172 4494 
z
" transform="scale(0.015625)"/>
       <path id="DejaVuSans-72" d="M 2631 2963 
Q 2534 3019 2420 3045 
Q 2306 3072 2169 3072 
Q 1681 3072 1420 2755 
Q 1159 2438 1159 1844 
L 1159 0 
L 581 0 
L 581 3500 
L 1159 3500 
L 1159 2956 
Q 1341 3275 1631 3429 
Q 1922 3584 2338 3584 
Q 2397 3584 2469 3576 
Q 2541 3569 2628 3553 
L 2631 2963 
z
" transform="scale(0.015625)"/>
       <path id="DejaVuSans-61" d="M 2194 1759 
Q 1497 1759 1228 1600 
Q 959 1441 959 1056 
Q 959 750 1161 570 
Q 1363 391 1709 391 
Q 2188 391 2477 730 
Q 2766 1069 2766 1631 
L 2766 1759 
L 2194 1759 
z
M 3341 1997 
L 3341 0 
L 2766 0 
L 2766 531 
Q 2569 213 2275 61 
Q 1981 -91 1556 -91 
Q 1019 -91 701 211 
Q 384 513 384 1019 
Q 384 1609 779 1909 
Q 1175 2209 1959 2209 
L 2766 2209 
L 2766 2266 
Q 2766 2663 2505 2880 
Q 2244 3097 1772 3097 
Q 1472 3097 1187 3025 
Q 903 2953 641 2809 
L 641 3341 
Q 956 3463 1253 3523 
Q 1550 3584 1831 3584 
Q 2591 3584 2966 3190 
Q 3341 2797 3341 1997 
z
" transform="scale(0.015625)"/>
       <path id="DejaVuSans-73" d="M 2834 3397 
L 2834 2853 
Q 2591 2978 2328 3040 
Q 2066 3103 1784 3103 
Q 1356 3103 1142 2972 
Q 928 2841 928 2578 
Q 928 2378 1081 2264 
Q 1234 2150 1697 2047 
L 1894 2003 
Q 2506 1872 2764 1633 
Q 3022 1394 3022 966 
Q 3022 478 2636 193 
Q 2250 -91 1575 -91 
Q 1294 -91 989 -36 
Q 684 19 347 128 
L 347 722 
Q 666 556 975 473 
Q 1284 391 1588 391 
Q 1994 391 2212 530 
Q 2431 669 2431 922 
Q 2431 1156 2273 1281 
Q 2116 1406 1581 1522 
L 1381 1569 
Q 847 1681 609 1914 
Q 372 2147 372 2553 
Q 372 3047 722 3315 
Q 1072 3584 1716 3584 
Q 2034 3584 2315 3537 
Q 2597 3491 2834 3397 
z
" transform="scale(0.015625)"/>
       <path id="DejaVuSans-66" d="M 2375 4863 
L 2375 4384 
L 1825 4384 
Q 1516 4384 1395 4259 
Q 1275 4134 1275 3809 
L 1275 3500 
L 2222 3500 
L 2222 3053 
L 1275 3053 
L 1275 0 
L 697 0 
L 697 3053 
L 147 3053 
L 147 3500 
L 697 3500 
L 697 3744 
Q 697 4328 969 4595 
Q 1241 4863 1831 4863 
L 2375 4863 
z
" transform="scale(0.015625)"/>
       <path id="DejaVuSans-65" d="M 3597 1894 
L 3597 1613 
L 953 1613 
Q 991 1019 1311 708 
Q 1631 397 2203 397 
Q 2534 397 2845 478 
Q 3156 559 3463 722 
L 3463 178 
Q 3153 47 2828 -22 
Q 2503 -91 2169 -91 
Q 1331 -91 842 396 
Q 353 884 353 1716 
Q 353 2575 817 3079 
Q 1281 3584 2069 3584 
Q 2775 3584 3186 3129 
Q 3597 2675 3597 1894 
z
M 3022 2063 
Q 3016 2534 2758 2815 
Q 2500 3097 2075 3097 
Q 1594 3097 1305 2825 
Q 1016 2553 972 2059 
L 3022 2063 
z
" transform="scale(0.015625)"/>
       <path id="DejaVuSans-2f" d="M 1625 4666 
L 2156 4666 
L 531 -594 
L 0 -594 
L 1625 4666 
z
" transform="scale(0.015625)"/>
       <path id="DejaVuSans-63" d="M 3122 3366 
L 3122 2828 
Q 2878 2963 2633 3030 
Q 2388 3097 2138 3097 
Q 1578 3097 1268 2742 
Q 959 2388 959 1747 
Q 959 1106 1268 751 
Q 1578 397 2138 397 
Q 2388 397 2633 464 
Q 2878 531 3122 666 
L 3122 134 
Q 2881 22 2623 -34 
Q 2366 -91 2075 -91 
Q 1284 -91 818 406 
Q 353 903 353 1747 
Q 353 2603 823 3093 
Q 1294 3584 2113 3584 
Q 2378 3584 2631 3529 
Q 2884 3475 3122 3366 
z
" transform="scale(0.015625)"/>
       <path id="DejaVuSans-64" d="M 2906 2969 
L 2906 4863 
L 3481 4863 
L 3481 0 
L 2906 0 
L 2906 525 
Q 2725 213 2448 61 
Q 2172 -91 1784 -91 
Q 1150 -91 751 415 
Q 353 922 353 1747 
Q 353 2572 751 3078 
Q 1150 3584 1784 3584 
Q 2172 3584 2448 3432 
Q 2725 3281 2906 2969 
z
M 947 1747 
Q 947 1113 1208 752 
Q 1469 391 1925 391 
Q 2381 391 2643 752 
Q 2906 1113 2906 1747 
Q 2906 2381 2643 2742 
Q 2381 3103 1925 3103 
Q 1469 3103 1208 2742 
Q 947 2381 947 1747 
z
" transform="scale(0.015625)"/>
      </defs>
      <use xlink:href="#DejaVuSans-4d"/>
      <use xlink:href="#DejaVuSans-69" transform="translate(86.279297 0)"/>
      <use xlink:href="#DejaVuSans-6c" transform="translate(114.0625 0)"/>
      <use xlink:href="#DejaVuSans-6c" transform="translate(141.845703 0)"/>
      <use xlink:href="#DejaVuSans-69" transform="translate(169.628906 0)"/>
      <use xlink:href="#DejaVuSans-6f" transform="translate(197.412109 0)"/>
      <use xlink:href="#DejaVuSans-6e" transform="translate(258.59375 0)"/>
      <use xlink:href="#DejaVuSans-20" transform="translate(321.972656 0)"/>
      <use xlink:href="#DejaVuSans-74" transform="translate(353.759766 0)"/>
      <use xlink:href="#DejaVuSans-72" transform="translate(392.96875 0)"/>
      <use xlink:href="#DejaVuSans-61" transform="translate(434.082031 0)"/>
      <use xlink:href="#DejaVuSans-6e" transform="translate(495.361328 0)"/>
      <use xlink:href="#DejaVuSans-73" transform="translate(558.740234 0)"/>
      <use xlink:href="#DejaVuSans-66" transform="translate(610.839844 0)"/>
      <use xlink:href="#DejaVuSans-65" transform="translate(646.044922 0)"/>
      <use xlink:href="#DejaVuSans-72" transform="translate(707.568359 0)"/>
      <use xlink:href="#DejaVuSans-73" transform="translate(748.681641 0)"/>
      <use xlink:href="#DejaVuSans-20" transform="translate(800.78125 0)"/>
      <use xlink:href="#DejaVuSans-2f" transform="translate(832.568359 0)"/>
      <use xlink:href="#DejaVuSans-20" transform="translate(866.259766 0)"/>
      <use xlink:href="#DejaVuSans-73" transform="translate(898.046875 0)"/>
      <use xlink:href="#DejaVuSans-65" transform="translate(950.146484 0)"/>
      <use xlink:href="#DejaVuSans-63" transform="translate(1011.669922 0)"/>
      <use xlink:href="#DejaVuSans-6f" transform="translate(1066.650391 0)"/>
      <use xlink:href="#DejaVuSans-6e" transform="translate(1127.832031 0)"/>
      <use xlink:href="#DejaVuSans-64" transform="translate(1191.210938 0)"/>
     </g>
    </g>
   </g>
   <g id="matplotlib.axis_2">
    <g id="ytick_1">
     <g id="line2d_13">
      <defs>
       <path id="m568e9b49dc" d="M 0 0 
L -3.5 0 
" style="stroke: #000000; stroke-width: 0.8"/>
      </defs>
      <g>
       <use xlink:href="#m568e9b49dc" x="135.603365" y="309.503224" style="stroke: #000000; stroke-width: 0.8"/>
      </g>
     </g>
     <g id="text_8">
      <!-- MPMC | oneTBB bounded -->
      <g transform="translate(3.00024 313.324318) scale(0.1 -0.1)">
       <defs>
        <path id="DejaVuSans-50" d="M 1259 4147 
L 1259 2394 
L 2053 2394 
Q 2494 2394 2734 2622 
Q 2975 2850 2975 3272 
Q 2975 3691 2734 3919 
Q 2494 4147 2053 4147 
L 1259 4147 
z
M 628 4666 
L 2053 4666 
Q 2838 4666 3239 4311 
Q 3641 3956 3641 3272 
Q 3641 2581 3239 2228 
Q 2838 1875 2053 1875 
L 1259 1875 
L 1259 0 
L 628 0 
L 628 4666 
z
" transform="scale(0.015625)"/>
        <path id="DejaVuSans-43" d="M 4122 4306 
L 4122 3641 
Q 3803 3938 3442 4084 
Q 3081 4231 2675 4231 
Q 1875 4231 1450 3742 
Q 1025 3253 1025 2328 
Q 1025 1406 1450 917 
Q 1875 428 2675 428 
Q 3081 428 3442 575 
Q 3803 722 4122 1019 
L 4122 359 
Q 3791 134 3420 21 
Q 3050 -91 2638 -91 
Q 1578 -91 968 557 
Q 359 1206 359 2328 
Q 359 3453 968 4101 
Q 1578 4750 2638 4750 
Q 3056 4750 3426 4639 
Q 3797 4528 4122 4306 
z
" transform="scale(0.015625)"/>
        <path id="DejaVuSans-7c" d="M 1344 4891 
L 1344 -1509 
L 813 -1509 
L 813 4891 
L 1344 4891 
z
" transform="scale(0.015625)"/>
        <path id="DejaVuSans-54" d="M -19 4666 
L 3928 4666 
L 3928 4134 
L 2272 4134 
L 2272 0 
L 1638 0 
L 1638 4134 
L -19 4134 
L -19 4666 
z
" transform="scale(0.015625)"/>
        <path id="DejaVuSans-42" d="M 1259 2228 
L 1259 519 
L 2272 519 
Q 2781 519 3026 730 
Q 3272 941 3272 1375 
Q 3272 1813 3026 2020 
Q 2781 2228 2272 2228 
L 1259 2228 
z
M 1259 4147 
L 1259 2741 
L 2194 2741 
Q 2656 2741 2882 2914 
Q 3109 3088 3109 3444 
Q 3109 3797 2882 3972 
Q 2656 4147 2194 4147 
L 1259 4147 
z
M 628 4666 
L 2241 4666 
Q 2963 4666 3353 4366 
Q 3744 4066 3744 3513 
Q 3744 3084 3544 2831 
Q 3344 2578 2956 2516 
Q 3422 2416 3680 2098 
Q 3938 1781 3938 1306 
Q 3938 681 3513 340 
Q 3088 0 2303 0 
L 628 0 
L 628 4666 
z
" transform="scale(0.015625)"/>
        <path id="DejaVuSans-62" d="M 3116 1747 
Q 3116 2381 2855 2742 
Q 2594 3103 2138 3103 
Q 1681 3103 1420 2742 
Q 1159 2381 1159 1747 
Q 1159 1113 1420 752 
Q 1681 391 2138 391 
Q 2594 391 2855 752 
Q 3116 1113 3116 1747 
z
M 1159 2969 
Q 1341 3281 1617 3432 
Q 1894 3584 2278 3584 
Q 2916 3584 3314 3078 
Q 3713 2572 3713 1747 
Q 3713 922 3314 415 
Q 2916 -91 2278 -91 
Q 1894 -91 1617 61 
Q 1341 213 1159 525 
L 1159 0 
L 581 0 
L 581 4863 
L 1159 4863 
L 1159 2969 
z
" transform="scale(0.015625)"/>
        <path id="DejaVuSans-75" d="M 544 1381 
L 544 3500 
L 1119 3500 
L 1119 1403 
Q 1119 906 1312 657 
Q 1506 409 1894 409 
Q 2359 409 2629 706 
Q 2900 1003 2900 1516 
L 2900 3500 
L 3475 3500 
L 3475 0 
L 2900 0 
L 2900 538 
Q 2691 219 2414 64 
Q 2138 -91 1772 -91 
Q 1169 -91 856 284 
Q 544 659 544 1381 
z
M 1991 3584 
L 1991 3584 
z
" transform="scale(0.015625)"/>
       </defs>
       <use xlink:href="#DejaVuSans-4d"/>
       <use xlink:href="#DejaVuSans-50" transform="translate(86.279297 0)"/>
       <use xlink:href="#DejaVuSans-4d" transform="translate(146.582031 0)"/>
       <use xlink:href="#DejaVuSans-43" transform="translate(232.861328 0)"/>
       <use xlink:href="#DejaVuSans-20" transform="translate(302.685547 0)"/>
       <use xlink:href="#DejaVuSans-7c" transform="translate(334.472656 0)"/>
       <use xlink:href="#DejaVuSans-20" transform="translate(368.164062 0)"/>
       <use xlink:href="#DejaVuSans-6f" transform="translate(399.951172 0)"/>
       <use xlink:href="#DejaVuSans-6e" transform="translate(461.132812 0)"/>
       <use xlink:href="#DejaVuSans-65" transform="translate(524.511719 0)"/>
       <use xlink:href="#DejaVuSans-54" transform="translate(586.035156 0)"/>
       <use xlink:href="#DejaVuSans-42" transform="translate(647.119141 0)"/>
       <use xlink:href="#DejaVuSans-42" transform="translate(715.722656 0)"/>
       <use xlink:href="#DejaVuSans-20" transform="translate(784.326172 0)"/>
       <use xlink:href="#DejaVuSans-62" transform="translate(816.113281 0)"/>
       <use xlink:href="#DejaVuSans-6f" transform="translate(879.589844 0)"/>
       <use xlink:href="#DejaVuSans-75" transform="translate(940.771484 0)"/>
       <use xlink:href="#DejaVuSans-6e" transform="translate(1004.150391 0)"/>
       <use xlink:href="#DejaVuSans-64" transform="translate(1067.529297 0)"/>
       <use xlink:href="#DejaVuSans-65" transform="translate(1131.005859 0)"/>
       <use xlink:href="#DejaVuSans-64" transform="translate(1192.529297 0)"/>
      </g>
     </g>
    </g>
    <g id="ytick_2">
     <g id="line2d_14">
      <g>
       <use xlink:href="#m568e9b49dc" x="135.603365" y="275.222652" style="stroke: #000000; stroke-width: 0.8"/>
      </g>
     </g>
     <g id="text_9">
      <!-- MPSC | oneTBB bounded -->
      <g transform="translate(5.279927 279.043746) scale(0.1 -0.1)">
       <defs>
        <path id="DejaVuSans-53" d="M 3425 4513 
L 3425 3897 
Q 3066 4069 2747 4153 
Q 2428 4238 2131 4238 
Q 1616 4238 1336 4038 
Q 1056 3838 1056 3469 
Q 1056 3159 1242 3001 
Q 1428 2844 1947 2747 
L 2328 2669 
Q 3034 2534 3370 2195 
Q 3706 1856 3706 1288 
Q 3706 609 3251 259 
Q 2797 -91 1919 -91 
Q 1588 -91 1214 -16 
Q 841 59 441 206 
L 441 856 
Q 825 641 1194 531 
Q 1563 422 1919 422 
Q 2459 422 2753 634 
Q 3047 847 3047 1241 
Q 3047 1584 2836 1778 
Q 2625 1972 2144 2069 
L 1759 2144 
Q 1053 2284 737 2584 
Q 422 2884 422 3419 
Q 422 4038 858 4394 
Q 1294 4750 2059 4750 
Q 2388 4750 2728 4690 
Q 3069 4631 3425 4513 
z
" transform="scale(0.015625)"/>
       </defs>
       <use xlink:href="#DejaVuSans-4d"/>
       <use xlink:href="#DejaVuSans-50" transform="translate(86.279297 0)"/>
       <use xlink:href="#DejaVuSans-53" transform="translate(146.582031 0)"/>
       <use xlink:href="#DejaVuSans-43" transform="translate(210.058594 0)"/>
       <use xlink:href="#DejaVuSans-20" transform="translate(279.882812 0)"/>
       <use xlink:href="#DejaVuSans-7c" transform="translate(311.669922 0)"/>
       <use xlink:href="#DejaVuSans-20" transform="translate(345.361328 0)"/>
       <use xlink:href="#DejaVuSans-6f" transform="translate(377.148438 0)"/>
       <use xlink:href="#DejaVuSans-6e" transform="translate(438.330078 0)"/>
       <use xlink:href="#DejaVuSans-65" transform="translate(501.708984 0)"/>
       <use xlink:href="#DejaVuSans-54" transform="translate(563.232422 0)"/>
       <use xlink:href="#DejaVuSans-42" transform="translate(624.316406 0)"/>
       <use xlink:href="#DejaVuSans-42" transform="translate(692.919922 0)"/>
       <use xlink:href="#DejaVuSans-20" transform="translate(761.523438 0)"/>
       <use xlink:href="#DejaVuSans-62" transform="translate(793.310547 0)"/>
       <use xlink:href="#DejaVuSans-6f" transform="translate(856.787109 0)"/>
       <use xlink:href="#DejaVuSans-75" transform="translate(917.96875 0)"/>
       <use xlink:href="#DejaVuSans-6e" transform="translate(981.347656 0)"/>
       <use xlink:href="#DejaVuSans-64" transform="translate(1044.726562 0)"/>
       <use xlink:href="#DejaVuSans-65" transform="translate(1108.203125 0)"/>
       <use xlink:href="#DejaVuSans-64" transform="translate(1169.726562 0)"/>
      </g>
     </g>
    </g>
    <g id="ytick_3">
     <g id="line2d_15">
      <g>
       <use xlink:href="#m568e9b49dc" x="135.603365" y="240.942081" style="stroke: #000000; stroke-width: 0.8"/>
      </g>
     </g>
     <g id="text_10">
      <!-- MPSC | moodycamel -->
      <g transform="translate(26.345552 244.763175) scale(0.1 -0.1)">
       <defs>
        <path id="DejaVuSans-6d" d="M 3328 2828 
Q 3544 3216 3844 3400 
Q 4144 3584 4550 3584 
Q 5097 3584 5394 3201 
Q 5691 2819 5691 2113 
L 5691 0 
L 5113 0 
L 5113 2094 
Q 5113 2597 4934 2840 
Q 4756 3084 4391 3084 
Q 3944 3084 3684 2787 
Q 3425 2491 3425 1978 
L 3425 0 
L 2847 0 
L 2847 2094 
Q 2847 2600 2669 2842 
Q 2491 3084 2119 3084 
Q 1678 3084 1418 2786 
Q 1159 2488 1159 1978 
L 1159 0 
L 581 0 
L 581 3500 
L 1159 3500 
L 1159 2956 
Q 1356 3278 1631 3431 
Q 1906 3584 2284 3584 
Q 2666 3584 2933 3390 
Q 3200 3197 3328 2828 
z
" transform="scale(0.015625)"/>
        <path id="DejaVuSans-79" d="M 2059 -325 
Q 1816 -950 1584 -1140 
Q 1353 -1331 966 -1331 
L 506 -1331 
L 506 -850 
L 844 -850 
Q 1081 -850 1212 -737 
Q 1344 -625 1503 -206 
L 1606 56 
L 191 3500 
L 800 3500 
L 1894 763 
L 2988 3500 
L 3597 3500 
L 2059 -325 
z
" transform="scale(0.015625)"/>
       </defs>
       <use xlink:href="#DejaVuSans-4d"/>
       <use xlink:href="#DejaVuSans-50" transform="translate(86.279297 0)"/>
       <use xlink:href="#DejaVuSans-53" transform="translate(146.582031 0)"/>
       <use xlink:href="#DejaVuSans-43" transform="translate(210.058594 0)"/>
       <use xlink:href="#DejaVuSans-20" transform="translate(279.882812 0)"/>
       <use xlink:href="#DejaVuSans-7c" transform="translate(311.669922 0)"/>
       <use xlink:href="#DejaVuSans-20" transform="translate(345.361328 0)"/>
       <use xlink:href="#DejaVuSans-6d" transform="translate(377.148438 0)"/>
       <use xlink:href="#DejaVuSans-6f" transform="translate(474.560547 0)"/>
       <use xlink:href="#DejaVuSans-6f" transform="translate(535.742188 0)"/>
       <use xlink:href="#DejaVuSans-64" transform="translate(596.923828 0)"/>
       <use xlink:href="#DejaVuSans-79" transform="translate(660.400391 0)"/>
       <use xlink:href="#DejaVuSans-63" transform="translate(719.580078 0)"/>
       <use xlink:href="#DejaVuSans-61" transform="translate(774.560547 0)"/>
       <use xlink:href="#DejaVuSans-6d" transform="translate(835.839844 0)"/>
       <use xlink:href="#DejaVuSans-65" transform="translate(933.251953 0)"/>
       <use xlink:href="#DejaVuSans-6c" transform="translate(994.775391 0)"/>
      </g>
     </g>
    </g>
    <g id="ytick_4">
     <g id="line2d_16">
      <g>
       <use xlink:href="#m568e9b49dc" x="135.603365" y="206.661509" style="stroke: #000000; stroke-width: 0.8"/>
      </g>
     </g>
     <g id="text_11">
      <!-- MPMC | Mashiro MPMC -->
      <g transform="translate(16.076802 210.482603) scale(0.1 -0.1)">
       <defs>
        <path id="DejaVuSans-68" d="M 3513 2113 
L 3513 0 
L 2938 0 
L 2938 2094 
Q 2938 2591 2744 2837 
Q 2550 3084 2163 3084 
Q 1697 3084 1428 2787 
Q 1159 2491 1159 1978 
L 1159 0 
L 581 0 
L 581 4863 
L 1159 4863 
L 1159 2956 
Q 1366 3272 1645 3428 
Q 1925 3584 2291 3584 
Q 2894 3584 3203 3211 
Q 3513 2838 3513 2113 
z
" transform="scale(0.015625)"/>
       </defs>
       <use xlink:href="#DejaVuSans-4d"/>
       <use xlink:href="#DejaVuSans-50" transform="translate(86.279297 0)"/>
       <use xlink:href="#DejaVuSans-4d" transform="translate(146.582031 0)"/>
       <use xlink:href="#DejaVuSans-43" transform="translate(232.861328 0)"/>
       <use xlink:href="#DejaVuSans-20" transform="translate(302.685547 0)"/>
       <use xlink:href="#DejaVuSans-7c" transform="translate(334.472656 0)"/>
       <use xlink:href="#DejaVuSans-20" transform="translate(368.164062 0)"/>
       <use xlink:href="#DejaVuSans-4d" transform="translate(399.951172 0)"/>
       <use xlink:href="#DejaVuSans-61" transform="translate(486.230469 0)"/>
       <use xlink:href="#DejaVuSans-73" transform="translate(547.509766 0)"/>
       <use xlink:href="#DejaVuSans-68" transform="translate(599.609375 0)"/>
       <use xlink:href="#DejaVuSans-69" transform="translate(662.988281 0)"/>
       <use xlink:href="#DejaVuSans-72" transform="translate(690.771484 0)"/>
       <use xlink:href="#DejaVuSans-6f" transform="translate(729.634766 0)"/>
       <use xlink:href="#DejaVuSans-20" transform="translate(790.816406 0)"/>
       <use xlink:href="#DejaVuSans-4d" transform="translate(822.603516 0)"/>
       <use xlink:href="#DejaVuSans-50" transform="translate(908.882812 0)"/>
       <use xlink:href="#DejaVuSans-4d" transform="translate(969.185547 0)"/>
       <use xlink:href="#DejaVuSans-43" transform="translate(1055.464844 0)"/>
      </g>
     </g>
    </g>
    <g id="ytick_5">
     <g id="line2d_17">
      <g>
       <use xlink:href="#m568e9b49dc" x="135.603365" y="172.380937" style="stroke: #000000; stroke-width: 0.8"/>
      </g>
     </g>
     <g id="text_12">
      <!-- MPMC | moodycamel -->
      <g transform="translate(24.065865 176.202031) scale(0.1 -0.1)">
       <use xlink:href="#DejaVuSans-4d"/>
       <use xlink:href="#DejaVuSans-50" transform="translate(86.279297 0)"/>
       <use xlink:href="#DejaVuSans-4d" transform="translate(146.582031 0)"/>
       <use xlink:href="#DejaVuSans-43" transform="translate(232.861328 0)"/>
       <use xlink:href="#DejaVuSans-20" transform="translate(302.685547 0)"/>
       <use xlink:href="#DejaVuSans-7c" transform="translate(334.472656 0)"/>
       <use xlink:href="#DejaVuSans-20" transform="translate(368.164062 0)"/>
       <use xlink:href="#DejaVuSans-6d" transform="translate(399.951172 0)"/>
       <use xlink:href="#DejaVuSans-6f" transform="translate(497.363281 0)"/>
       <use xlink:href="#DejaVuSans-6f" transform="translate(558.544922 0)"/>
       <use xlink:href="#DejaVuSans-64" transform="translate(619.726562 0)"/>
       <use xlink:href="#DejaVuSans-79" transform="translate(683.203125 0)"/>
       <use xlink:href="#DejaVuSans-63" transform="translate(742.382812 0)"/>
       <use xlink:href="#DejaVuSans-61" transform="translate(797.363281 0)"/>
       <use xlink:href="#DejaVuSans-6d" transform="translate(858.642578 0)"/>
       <use xlink:href="#DejaVuSans-65" transform="translate(956.054688 0)"/>
       <use xlink:href="#DejaVuSans-6c" transform="translate(1017.578125 0)"/>
      </g>
     </g>
    </g>
    <g id="ytick_6">
     <g id="line2d_18">
      <g>
       <use xlink:href="#m568e9b49dc" x="135.603365" y="138.100366" style="stroke: #000000; stroke-width: 0.8"/>
      </g>
     </g>
     <g id="text_13">
      <!-- MPSC | Mashiro MPMC -->
      <g transform="translate(18.35649 141.92146) scale(0.1 -0.1)">
       <use xlink:href="#DejaVuSans-4d"/>
       <use xlink:href="#DejaVuSans-50" transform="translate(86.279297 0)"/>
       <use xlink:href="#DejaVuSans-53" transform="translate(146.582031 0)"/>
       <use xlink:href="#DejaVuSans-43" transform="translate(210.058594 0)"/>
       <use xlink:href="#DejaVuSans-20" transform="translate(279.882812 0)"/>
       <use xlink:href="#DejaVuSans-7c" transform="translate(311.669922 0)"/>
       <use xlink:href="#DejaVuSans-20" transform="translate(345.361328 0)"/>
       <use xlink:href="#DejaVuSans-4d" transform="translate(377.148438 0)"/>
       <use xlink:href="#DejaVuSans-61" transform="translate(463.427734 0)"/>
       <use xlink:href="#DejaVuSans-73" transform="translate(524.707031 0)"/>
       <use xlink:href="#DejaVuSans-68" transform="translate(576.806641 0)"/>
       <use xlink:href="#DejaVuSans-69" transform="translate(640.185547 0)"/>
       <use xlink:href="#DejaVuSans-72" transform="translate(667.96875 0)"/>
       <use xlink:href="#DejaVuSans-6f" transform="translate(706.832031 0)"/>
       <use xlink:href="#DejaVuSans-20" transform="translate(768.013672 0)"/>
       <use xlink:href="#DejaVuSans-4d" transform="translate(799.800781 0)"/>
       <use xlink:href="#DejaVuSans-50" transform="translate(886.080078 0)"/>
       <use xlink:href="#DejaVuSans-4d" transform="translate(946.382812 0)"/>
       <use xlink:href="#DejaVuSans-43" transform="translate(1032.662109 0)"/>
      </g>
     </g>
    </g>
    <g id="ytick_7">
     <g id="line2d_19">
      <g>
       <use xlink:href="#m568e9b49dc" x="135.603365" y="103.819794" style="stroke: #000000; stroke-width: 0.8"/>
      </g>
     </g>
     <g id="text_14">
      <!-- MPSC | mutex deque -->
      <g transform="translate(24.47524 107.640888) scale(0.1 -0.1)">
       <defs>
        <path id="DejaVuSans-78" d="M 3513 3500 
L 2247 1797 
L 3578 0 
L 2900 0 
L 1881 1375 
L 863 0 
L 184 0 
L 1544 1831 
L 300 3500 
L 978 3500 
L 1906 2253 
L 2834 3500 
L 3513 3500 
z
" transform="scale(0.015625)"/>
        <path id="DejaVuSans-71" d="M 947 1747 
Q 947 1113 1208 752 
Q 1469 391 1925 391 
Q 2381 391 2643 752 
Q 2906 1113 2906 1747 
Q 2906 2381 2643 2742 
Q 2381 3103 1925 3103 
Q 1469 3103 1208 2742 
Q 947 2381 947 1747 
z
M 2906 525 
Q 2725 213 2448 61 
Q 2172 -91 1784 -91 
Q 1150 -91 751 415 
Q 353 922 353 1747 
Q 353 2572 751 3078 
Q 1150 3584 1784 3584 
Q 2172 3584 2448 3432 
Q 2725 3281 2906 2969 
L 2906 3500 
L 3481 3500 
L 3481 -1331 
L 2906 -1331 
L 2906 525 
z
" transform="scale(0.015625)"/>
       </defs>
       <use xlink:href="#DejaVuSans-4d"/>
       <use xlink:href="#DejaVuSans-50" transform="translate(86.279297 0)"/>
       <use xlink:href="#DejaVuSans-53" transform="translate(146.582031 0)"/>
       <use xlink:href="#DejaVuSans-43" transform="translate(210.058594 0)"/>
       <use xlink:href="#DejaVuSans-20" transform="translate(279.882812 0)"/>
       <use xlink:href="#DejaVuSans-7c" transform="translate(311.669922 0)"/>
       <use xlink:href="#DejaVuSans-20" transform="translate(345.361328 0)"/>
       <use xlink:href="#DejaVuSans-6d" transform="translate(377.148438 0)"/>
       <use xlink:href="#DejaVuSans-75" transform="translate(474.560547 0)"/>
       <use xlink:href="#DejaVuSans-74" transform="translate(537.939453 0)"/>
       <use xlink:href="#DejaVuSans-65" transform="translate(577.148438 0)"/>
       <use xlink:href="#DejaVuSans-78" transform="translate(636.921875 0)"/>
       <use xlink:href="#DejaVuSans-20" transform="translate(696.101562 0)"/>
       <use xlink:href="#DejaVuSans-64" transform="translate(727.888672 0)"/>
       <use xlink:href="#DejaVuSans-65" transform="translate(791.365234 0)"/>
       <use xlink:href="#DejaVuSans-71" transform="translate(852.888672 0)"/>
       <use xlink:href="#DejaVuSans-75" transform="translate(916.365234 0)"/>
       <use xlink:href="#DejaVuSans-65" transform="translate(979.744141 0)"/>
      </g>
     </g>
    </g>
    <g id="ytick_8">
     <g id="line2d_20">
      <g>
       <use xlink:href="#m568e9b49dc" x="135.603365" y="69.539222" style="stroke: #000000; stroke-width: 0.8"/>
      </g>
     </g>
     <g id="text_15">
      <!-- MPSC | Mashiro MPSC -->
      <g transform="translate(20.636177 73.360316) scale(0.1 -0.1)">
       <use xlink:href="#DejaVuSans-4d"/>
       <use xlink:href="#DejaVuSans-50" transform="translate(86.279297 0)"/>
       <use xlink:href="#DejaVuSans-53" transform="translate(146.582031 0)"/>
       <use xlink:href="#DejaVuSans-43" transform="translate(210.058594 0)"/>
       <use xlink:href="#DejaVuSans-20" transform="translate(279.882812 0)"/>
       <use xlink:href="#DejaVuSans-7c" transform="translate(311.669922 0)"/>
       <use xlink:href="#DejaVuSans-20" transform="translate(345.361328 0)"/>
       <use xlink:href="#DejaVuSans-4d" transform="translate(377.148438 0)"/>
       <use xlink:href="#DejaVuSans-61" transform="translate(463.427734 0)"/>
       <use xlink:href="#DejaVuSans-73" transform="translate(524.707031 0)"/>
       <use xlink:href="#DejaVuSans-68" transform="translate(576.806641 0)"/>
       <use xlink:href="#DejaVuSans-69" transform="translate(640.185547 0)"/>
       <use xlink:href="#DejaVuSans-72" transform="translate(667.96875 0)"/>
       <use xlink:href="#DejaVuSans-6f" transform="translate(706.832031 0)"/>
       <use xlink:href="#DejaVuSans-20" transform="translate(768.013672 0)"/>
       <use xlink:href="#DejaVuSans-4d" transform="translate(799.800781 0)"/>
       <use xlink:href="#DejaVuSans-50" transform="translate(886.080078 0)"/>
       <use xlink:href="#DejaVuSans-53" transform="translate(946.382812 0)"/>
       <use xlink:href="#DejaVuSans-43" transform="translate(1009.859375 0)"/>
      </g>
     </g>
    </g>
    <g id="ytick_9">
     <g id="line2d_21">
      <g>
       <use xlink:href="#m568e9b49dc" x="135.603365" y="35.258651" style="stroke: #000000; stroke-width: 0.8"/>
      </g>
     </g>
     <g id="text_16">
      <!-- MPMC | mutex deque -->
      <g transform="translate(22.195552 39.079745) scale(0.1 -0.1)">
       <use xlink:href="#DejaVuSans-4d"/>
       <use xlink:href="#DejaVuSans-50" transform="translate(86.279297 0)"/>
       <use xlink:href="#DejaVuSans-4d" transform="translate(146.582031 0)"/>
       <use xlink:href="#DejaVuSans-43" transform="translate(232.861328 0)"/>
       <use xlink:href="#DejaVuSans-20" transform="translate(302.685547 0)"/>
       <use xlink:href="#DejaVuSans-7c" transform="translate(334.472656 0)"/>
       <use xlink:href="#DejaVuSans-20" transform="translate(368.164062 0)"/>
       <use xlink:href="#DejaVuSans-6d" transform="translate(399.951172 0)"/>
       <use xlink:href="#DejaVuSans-75" transform="translate(497.363281 0)"/>
       <use xlink:href="#DejaVuSans-74" transform="translate(560.742188 0)"/>
       <use xlink:href="#DejaVuSans-65" transform="translate(599.951172 0)"/>
       <use xlink:href="#DejaVuSans-78" transform="translate(659.724609 0)"/>
       <use xlink:href="#DejaVuSans-20" transform="translate(718.904297 0)"/>
       <use xlink:href="#DejaVuSans-64" transform="translate(750.691406 0)"/>
       <use xlink:href="#DejaVuSans-65" transform="translate(814.167969 0)"/>
       <use xlink:href="#DejaVuSans-71" transform="translate(875.691406 0)"/>
       <use xlink:href="#DejaVuSans-75" transform="translate(939.167969 0)"/>
       <use xlink:href="#DejaVuSans-65" transform="translate(1002.546875 0)"/>
      </g>
     </g>
    </g>
   </g>
   <g id="patch_3">
    <path d="M 209.768942 318.073367 
L 209.768942 300.933081 
L 265.160823 300.933081 
L 265.160823 318.073367 
L 209.768942 318.073367 
z
" clip-path="url(#pb331927746)" style="fill: #56b4e9; opacity: 0.7; stroke: #000000; stroke-linejoin: miter"/>
   </g>
   <g id="line2d_22">
    <path d="M 209.768942 309.503224 
L 168.575928 309.503224 
" clip-path="url(#pb331927746)" style="fill: none; stroke: #000000; stroke-linecap: square"/>
   </g>
   <g id="line2d_23">
    <path d="M 265.160823 309.503224 
L 302.161858 309.503224 
" clip-path="url(#pb331927746)" style="fill: none; stroke: #000000; stroke-linecap: square"/>
   </g>
   <g id="line2d_24">
    <path d="M 168.575928 313.788296 
L 168.575928 305.218153 
" clip-path="url(#pb331927746)" style="fill: none; stroke: #000000; stroke-linecap: square"/>
   </g>
   <g id="line2d_25">
    <path d="M 302.161858 313.788296 
L 302.161858 305.218153 
" clip-path="url(#pb331927746)" style="fill: none; stroke: #000000; stroke-linecap: square"/>
   </g>
   <g id="line2d_26"/>
   <g id="patch_4">
    <path d="M 304.903037 283.792795 
L 304.903037 266.65251 
L 362.225027 266.65251 
L 362.225027 283.792795 
L 304.903037 283.792795 
z
" clip-path="url(#pb331927746)" style="fill: #56b4e9; opacity: 0.7; stroke: #000000; stroke-linejoin: miter"/>
   </g>
   <g id="line2d_27">
    <path d="M 304.903037 275.222652 
L 281.71098 275.222652 
" clip-path="url(#pb331927746)" style="fill: none; stroke: #000000; stroke-linecap: square"/>
   </g>
   <g id="line2d_28">
    <path d="M 362.225027 275.222652 
L 432.473988 275.222652 
" clip-path="url(#pb331927746)" style="fill: none; stroke: #000000; stroke-linecap: square"/>
   </g>
   <g id="line2d_29">
    <path d="M 281.71098 279.507724 
L 281.71098 270.937581 
" clip-path="url(#pb331927746)" style="fill: none; stroke: #000000; stroke-linecap: square"/>
   </g>
   <g id="line2d_30">
    <path d="M 432.473988 279.507724 
L 432.473988 270.937581 
" clip-path="url(#pb331927746)" style="fill: none; stroke: #000000; stroke-linecap: square"/>
   </g>
   <g id="line2d_31"/>
   <g id="patch_5">
    <path d="M 358.5259 249.512224 
L 358.5259 232.371938 
L 424.045503 232.371938 
L 424.045503 249.512224 
L 358.5259 249.512224 
z
" clip-path="url(#pb331927746)" style="fill: #56b4e9; opacity: 0.7; stroke: #000000; stroke-linejoin: miter"/>
   </g>
   <g id="line2d_32">
    <path d="M 358.5259 240.942081 
L 346.279955 240.942081 
" clip-path="url(#pb331927746)" style="fill: none; stroke: #000000; stroke-linecap: square"/>
   </g>
   <g id="line2d_33">
    <path d="M 424.045503 240.942081 
L 465.650548 240.942081 
" clip-path="url(#pb331927746)" style="fill: none; stroke: #000000; stroke-linecap: square"/>
   </g>
   <g id="line2d_34">
    <path d="M 346.279955 245.227152 
L 346.279955 236.657009 
" clip-path="url(#pb331927746)" style="fill: none; stroke: #000000; stroke-linecap: square"/>
   </g>
   <g id="line2d_35">
    <path d="M 465.650548 245.227152 
L 465.650548 236.657009 
" clip-path="url(#pb331927746)" style="fill: none; stroke: #000000; stroke-linecap: square"/>
   </g>
   <g id="line2d_36">
    <defs>
     <path id="medbc4a26d9" d="M 0 3 
C 0.795609 3 1.55874 2.683901 2.12132 2.12132 
C 2.683901 1.55874 3 0.795609 3 0 
C 3 -0.795609 2.683901 -1.55874 2.12132 -2.12132 
C 1.55874 -2.683901 0.795609 -3 0 -3 
C -0.795609 -3 -1.55874 -2.683901 -2.12132 -2.12132 
C -2.683901 -1.55874 -3 -0.795609 -3 0 
C -3 0.795609 -2.683901 1.55874 -2.12132 2.12132 
C -1.55874 2.683901 -0.795609 3 0 3 
z
" style="stroke: #000000"/>
    </defs>
    <g clip-path="url(#pb331927746)">
     <use xlink:href="#medbc4a26d9" x="544.466455" y="240.942081" style="fill-opacity: 0; stroke: #000000"/>
    </g>
   </g>
   <g id="patch_6">
    <path d="M 485.061132 215.231652 
L 485.061132 198.091366 
L 550.007369 198.091366 
L 550.007369 215.231652 
L 485.061132 215.231652 
z
" clip-path="url(#pb331927746)" style="fill: #56b4e9; opacity: 0.7; stroke: #000000; stroke-linejoin: miter"/>
   </g>
   <g id="line2d_37">
    <path d="M 485.061132 206.661509 
L 424.058313 206.661509 
" clip-path="url(#pb331927746)" style="fill: none; stroke: #000000; stroke-linecap: square"/>
   </g>
   <g id="line2d_38">
    <path d="M 550.007369 206.661509 
L 580.996598 206.661509 
" clip-path="url(#pb331927746)" style="fill: none; stroke: #000000; stroke-linecap: square"/>
   </g>
   <g id="line2d_39">
    <path d="M 424.058313 210.946581 
L 424.058313 202.376438 
" clip-path="url(#pb331927746)" style="fill: none; stroke: #000000; stroke-linecap: square"/>
   </g>
   <g id="line2d_40">
    <path d="M 580.996598 210.946581 
L 580.996598 202.376438 
" clip-path="url(#pb331927746)" style="fill: none; stroke: #000000; stroke-linecap: square"/>
   </g>
   <g id="line2d_41">
    <g clip-path="url(#pb331927746)">
     <use xlink:href="#medbc4a26d9" x="670.336216" y="206.661509" style="fill-opacity: 0; stroke: #000000"/>
    </g>
   </g>
   <g id="patch_7">
    <path d="M 545.964832 180.95108 
L 545.964832 163.810795 
L 600.59749 163.810795 
L 600.59749 180.95108 
L 545.964832 180.95108 
z
" clip-path="url(#pb331927746)" style="fill: #56b4e9; opacity: 0.7; stroke: #000000; stroke-linejoin: miter"/>
   </g>
   <g id="line2d_42">
    <path d="M 545.964832 172.380937 
L 499.586513 172.380937 
" clip-path="url(#pb331927746)" style="fill: none; stroke: #000000; stroke-linecap: square"/>
   </g>
   <g id="line2d_43">
    <path d="M 600.59749 172.380937 
L 675.71183 172.380937 
" clip-path="url(#pb331927746)" style="fill: none; stroke: #000000; stroke-linecap: square"/>
   </g>
   <g id="line2d_44">
    <path d="M 499.586513 176.666009 
L 499.586513 168.095866 
" clip-path="url(#pb331927746)" style="fill: none; stroke: #000000; stroke-linecap: square"/>
   </g>
   <g id="line2d_45">
    <path d="M 675.71183 176.666009 
L 675.71183 168.095866 
" clip-path="url(#pb331927746)" style="fill: none; stroke: #000000; stroke-linecap: square"/>
   </g>
   <g id="line2d_46"/>
   <g id="patch_8">
    <path d="M 544.55612 146.670509 
L 544.55612 129.530223 
L 597.837708 129.530223 
L 597.837708 146.670509 
L 544.55612 146.670509 
z
" clip-path="url(#pb331927746)" style="fill: #56b4e9; opacity: 0.7; stroke: #000000; stroke-linejoin: miter"/>
   </g>
   <g id="line2d_47">
    <path d="M 544.55612 138.100366 
L 482.705755 138.100366 
" clip-path="url(#pb331927746)" style="fill: none; stroke: #000000; stroke-linecap: square"/>
   </g>
   <g id="line2d_48">
    <path d="M 597.837708 138.100366 
L 640.929845 138.100366 
" clip-path="url(#pb331927746)" style="fill: none; stroke: #000000; stroke-linecap: square"/>
   </g>
   <g id="line2d_49">
    <path d="M 482.705755 142.385437 
L 482.705755 133.815294 
" clip-path="url(#pb331927746)" style="fill: none; stroke: #000000; stroke-linecap: square"/>
   </g>
   <g id="line2d_50">
    <path d="M 640.929845 142.385437 
L 640.929845 133.815294 
" clip-path="url(#pb331927746)" style="fill: none; stroke: #000000; stroke-linecap: square"/>
   </g>
   <g id="line2d_51">
    <g clip-path="url(#pb331927746)">
     <use xlink:href="#medbc4a26d9" x="726.24309" y="138.100366" style="fill-opacity: 0; stroke: #000000"/>
    </g>
   </g>
   <g id="patch_9">
    <path d="M 442.170588 112.389937 
L 442.170588 95.249651 
L 705.504309 95.249651 
L 705.504309 112.389937 
L 442.170588 112.389937 
z
" clip-path="url(#pb331927746)" style="fill: #56b4e9; opacity: 0.7; stroke: #000000; stroke-linejoin: miter"/>
   </g>
   <g id="line2d_52">
    <path d="M 442.170588 103.819794 
L 353.319551 103.819794 
" clip-path="url(#pb331927746)" style="fill: none; stroke: #000000; stroke-linecap: square"/>
   </g>
   <g id="line2d_53">
    <path d="M 705.504309 103.819794 
L 828.027197 103.819794 
" clip-path="url(#pb331927746)" style="fill: none; stroke: #000000; stroke-linecap: square"/>
   </g>
   <g id="line2d_54">
    <path d="M 353.319551 108.104866 
L 353.319551 99.534723 
" clip-path="url(#pb331927746)" style="fill: none; stroke: #000000; stroke-linecap: square"/>
   </g>
   <g id="line2d_55">
    <path d="M 828.027197 108.104866 
L 828.027197 99.534723 
" clip-path="url(#pb331927746)" style="fill: none; stroke: #000000; stroke-linecap: square"/>
   </g>
   <g id="line2d_56"/>
   <g id="patch_10">
    <path d="M 611.925134 78.109365 
L 611.925134 60.96908 
L 722.791913 60.96908 
L 722.791913 78.109365 
L 611.925134 78.109365 
z
" clip-path="url(#pb331927746)" style="fill: #56b4e9; opacity: 0.7; stroke: #000000; stroke-linejoin: miter"/>
   </g>
   <g id="line2d_57">
    <path d="M 611.925134 69.539222 
L 528.994104 69.539222 
" clip-path="url(#pb331927746)" style="fill: none; stroke: #000000; stroke-linecap: square"/>
   </g>
   <g id="line2d_58">
    <path d="M 722.791913 69.539222 
L 810.222343 69.539222 
" clip-path="url(#pb331927746)" style="fill: none; stroke: #000000; stroke-linecap: square"/>
   </g>
   <g id="line2d_59">
    <path d="M 528.994104 73.824294 
L 528.994104 65.254151 
" clip-path="url(#pb331927746)" style="fill: none; stroke: #000000; stroke-linecap: square"/>
   </g>
   <g id="line2d_60">
    <path d="M 810.222343 73.824294 
L 810.222343 65.254151 
" clip-path="url(#pb331927746)" style="fill: none; stroke: #000000; stroke-linecap: square"/>
   </g>
   <g id="line2d_61">
    <g clip-path="url(#pb331927746)">
     <use xlink:href="#medbc4a26d9" x="435.301172" y="69.539222" style="fill-opacity: 0; stroke: #000000"/>
    </g>
   </g>
   <g id="patch_11">
    <path d="M 655.574169 43.828794 
L 655.574169 26.688508 
L 778.076623 26.688508 
L 778.076623 43.828794 
L 655.574169 43.828794 
z
" clip-path="url(#pb331927746)" style="fill: #56b4e9; opacity: 0.7; stroke: #000000; stroke-linejoin: miter"/>
   </g>
   <g id="line2d_62">
    <path d="M 655.574169 35.258651 
L 571.737952 35.258651 
" clip-path="url(#pb331927746)" style="fill: none; stroke: #000000; stroke-linecap: square"/>
   </g>
   <g id="line2d_63">
    <path d="M 778.076623 35.258651 
L 826.319297 35.258651 
" clip-path="url(#pb331927746)" style="fill: none; stroke: #000000; stroke-linecap: square"/>
   </g>
   <g id="line2d_64">
    <path d="M 571.737952 39.543722 
L 571.737952 30.973579 
" clip-path="url(#pb331927746)" style="fill: none; stroke: #000000; stroke-linecap: square"/>
   </g>
   <g id="line2d_65">
    <path d="M 826.319297 39.543722 
L 826.319297 30.973579 
" clip-path="url(#pb331927746)" style="fill: none; stroke: #000000; stroke-linecap: square"/>
   </g>
   <g id="line2d_66"/>
   <g id="line2d_67">
    <path d="M 258.276158 318.073367 
L 258.276158 300.933081 
" clip-path="url(#pb331927746)" style="fill: none; stroke: #ff7f0e"/>
   </g>
   <g id="line2d_68">
    <path d="M 326.079162 283.792795 
L 326.079162 266.65251 
" clip-path="url(#pb331927746)" style="fill: none; stroke: #ff7f0e"/>
   </g>
   <g id="line2d_69">
    <path d="M 394.042587 249.512224 
L 394.042587 232.371938 
" clip-path="url(#pb331927746)" style="fill: none; stroke: #ff7f0e"/>
   </g>
   <g id="line2d_70">
    <path d="M 526.035778 215.231652 
L 526.035778 198.091366 
" clip-path="url(#pb331927746)" style="fill: none; stroke: #ff7f0e"/>
   </g>
   <g id="line2d_71">
    <path d="M 571.93924 180.95108 
L 571.93924 163.810795 
" clip-path="url(#pb331927746)" style="fill: none; stroke: #ff7f0e"/>
   </g>
   <g id="line2d_72">
    <path d="M 572.364995 146.670509 
L 572.364995 129.530223 
" clip-path="url(#pb331927746)" style="fill: none; stroke: #ff7f0e"/>
   </g>
   <g id="line2d_73">
    <path d="M 617.983603 112.389937 
L 617.983603 95.249651 
" clip-path="url(#pb331927746)" style="fill: none; stroke: #ff7f0e"/>
   </g>
   <g id="line2d_74">
    <path d="M 691.106105 78.109365 
L 691.106105 60.96908 
" clip-path="url(#pb331927746)" style="fill: none; stroke: #ff7f0e"/>
   </g>
   <g id="line2d_75">
    <path d="M 719.022334 43.828794 
L 719.022334 26.688508 
" clip-path="url(#pb331927746)" style="fill: none; stroke: #ff7f0e"/>
   </g>
   <g id="patch_12">
    <path d="M 135.603365 326.64351 
L 860.99976 326.64351 
" style="fill: none; stroke: #000000; stroke-width: 0.8; stroke-linejoin: miter; stroke-linecap: square"/>
   </g>
   <g id="text_17">
    <!-- Sample variability under contention -->
    <g transform="translate(390.646562 12.118365) scale(0.12 -0.12)">
     <defs>
      <path id="DejaVuSans-70" d="M 1159 525 
L 1159 -1331 
L 581 -1331 
L 581 3500 
L 1159 3500 
L 1159 2969 
Q 1341 3281 1617 3432 
Q 1894 3584 2278 3584 
Q 2916 3584 3314 3078 
Q 3713 2572 3713 1747 
Q 3713 922 3314 415 
Q 2916 -91 2278 -91 
Q 1894 -91 1617 61 
Q 1341 213 1159 525 
z
M 3116 1747 
Q 3116 2381 2855 2742 
Q 2594 3103 2138 3103 
Q 1681 3103 1420 2742 
Q 1159 2381 1159 1747 
Q 1159 1113 1420 752 
Q 1681 391 2138 391 
Q 2594 391 2855 752 
Q 3116 1113 3116 1747 
z
" transform="scale(0.015625)"/>
      <path id="DejaVuSans-76" d="M 191 3500 
L 800 3500 
L 1894 563 
L 2988 3500 
L 3597 3500 
L 2284 0 
L 1503 0 
L 191 3500 
z
" transform="scale(0.015625)"/>
     </defs>
     <use xlink:href="#DejaVuSans-53"/>
     <use xlink:href="#DejaVuSans-61" transform="translate(63.476562 0)"/>
     <use xlink:href="#DejaVuSans-6d" transform="translate(124.755859 0)"/>
     <use xlink:href="#DejaVuSans-70" transform="translate(222.167969 0)"/>
     <use xlink:href="#DejaVuSans-6c" transform="translate(285.644531 0)"/>
     <use xlink:href="#DejaVuSans-65" transform="translate(313.427734 0)"/>
     <use xlink:href="#DejaVuSans-20" transform="translate(374.951172 0)"/>
     <use xlink:href="#DejaVuSans-76" transform="translate(406.738281 0)"/>
     <use xlink:href="#DejaVuSans-61" transform="translate(465.917969 0)"/>
     <use xlink:href="#DejaVuSans-72" transform="translate(527.197266 0)"/>
     <use xlink:href="#DejaVuSans-69" transform="translate(568.310547 0)"/>
     <use xlink:href="#DejaVuSans-61" transform="translate(596.09375 0)"/>
     <use xlink:href="#DejaVuSans-62" transform="translate(657.373047 0)"/>
     <use xlink:href="#DejaVuSans-69" transform="translate(720.849609 0)"/>
     <use xlink:href="#DejaVuSans-6c" transform="translate(748.632812 0)"/>
     <use xlink:href="#DejaVuSans-69" transform="translate(776.416016 0)"/>
     <use xlink:href="#DejaVuSans-74" transform="translate(804.199219 0)"/>
     <use xlink:href="#DejaVuSans-79" transform="translate(843.408203 0)"/>
     <use xlink:href="#DejaVuSans-20" transform="translate(902.587891 0)"/>
     <use xlink:href="#DejaVuSans-75" transform="translate(934.375 0)"/>
     <use xlink:href="#DejaVuSans-6e" transform="translate(997.753906 0)"/>
     <use xlink:href="#DejaVuSans-64" transform="translate(1061.132812 0)"/>
     <use xlink:href="#DejaVuSans-65" transform="translate(1124.609375 0)"/>
     <use xlink:href="#DejaVuSans-72" transform="translate(1186.132812 0)"/>
     <use xlink:href="#DejaVuSans-20" transform="translate(1227.246094 0)"/>
     <use xlink:href="#DejaVuSans-63" transform="translate(1259.033203 0)"/>
     <use xlink:href="#DejaVuSans-6f" transform="translate(1314.013672 0)"/>
     <use xlink:href="#DejaVuSans-6e" transform="translate(1375.195312 0)"/>
     <use xlink:href="#DejaVuSans-74" transform="translate(1438.574219 0)"/>
     <use xlink:href="#DejaVuSans-65" transform="translate(1477.783203 0)"/>
     <use xlink:href="#DejaVuSans-6e" transform="translate(1539.306641 0)"/>
     <use xlink:href="#DejaVuSans-74" transform="translate(1602.685547 0)"/>
     <use xlink:href="#DejaVuSans-69" transform="translate(1641.894531 0)"/>
     <use xlink:href="#DejaVuSans-6f" transform="translate(1669.677734 0)"/>
     <use xlink:href="#DejaVuSans-6e" transform="translate(1730.859375 0)"/>
    </g>
   </g>
  </g>
 </g>
 <defs>
  <clipPath id="pb331927746">
   <rect x="135.603365" y="18.118365" width="725.396395" height="308.525145"/>
  </clipPath>
 </defs>
</svg>
