<?xml version="1.0" encoding="utf-8" standalone="no"?>
<!DOCTYPE svg PUBLIC "-//W3C//DTD SVG 1.1//EN"
  "http://www.w3.org/Graphics/SVG/1.1/DTD/svg11.dtd">
<svg xmlns:xlink="http://www.w3.org/1999/xlink" width="720pt" height="432pt" viewBox="0 0 720 432" xmlns="http://www.w3.org/2000/svg" version="1.1">
 <metadata>
  <rdf:RDF xmlns:dc="http://purl.org/dc/elements/1.1/" xmlns:cc="http://creativecommons.org/ns#" xmlns:rdf="http://www.w3.org/1999/02/22-rdf-syntax-ns#">
   <cc:Work>
    <dc:type rdf:resource="http://purl.org/dc/dcmitype/StillImage"/>
    <dc:date>2026-07-17T12:41:49.710461</dc:date>
    <dc:format>image/svg+xml</dc:format>
    <dc:creator>
     <cc:Agent>
      <dc:title>Matplotlib v3.10.9, https://matplotlib.org/</dc:title>
     </cc:Agent>
    </dc:creator>
   </cc:Work>
  </rdf:RDF>
 </metadata>
 <defs>
  <style type="text/css">*{stroke-linejoin: round; stroke-linecap: butt}</style>
 </defs>
 <g id="figure_1">
  <g id="patch_1">
   <path d="M 0 432 
L 720 432 
L 720 0 
L 0 0 
z
" style="fill: #ffffff"/>
  </g>
  <g id="axes_1">
   <g id="patch_2">
    <path d="M 47.72 386.728 
L 709.2 386.728 
L 709.2 26.88 
L 47.72 26.88 
z
" style="fill: #ffffff"/>
   </g>
   <g id="matplotlib.axis_1">
    <g id="xtick_1">
     <g id="line2d_1">
      <defs>
       <path id="m8a88b857fc" d="M 0 0 
L 0 3.5 
" style="stroke: #000000; stroke-width: 0.8"/>
      </defs>
      <g>
       <use xlink:href="#m8a88b857fc" x="77.787273" y="386.728" style="stroke: #000000; stroke-width: 0.8"/>
      </g>
     </g>
     <g id="text_1">
      <!-- $\mathdefault{10^{2}}$ -->
      <g transform="translate(68.987273 401.326437) scale(0.1 -0.1)">
       <defs>
        <path id="DejaVuSans-31" d="M 794 531 
L 1825 531 
L 1825 4091 
L 703 3866 
L 703 4441 
L 1819 4666 
L 2450 4666 
L 2450 531 
L 3481 531 
L 3481 0 
L 794 0 
L 794 531 
z
" transform="scale(0.015625)"/>
        <path id="DejaVuSans-30" d="M 2034 4250 
Q 1547 4250 1301 3770 
Q 1056 3291 1056 2328 
Q 1056 1369 1301 889 
Q 1547 409 2034 409 
Q 2525 409 2770 889 
Q 3016 1369 3016 2328 
Q 3016 3291 2770 3770 
Q 2525 4250 2034 4250 
z
M 2034 4750 
Q 2819 4750 3233 4129 
Q 3647 3509 3647 2328 
Q 3647 1150 3233 529 
Q 2819 -91 2034 -91 
Q 1250 -91 836 529 
Q 422 1150 422 2328 
Q 422 3509 836 4129 
Q 1250 4750 2034 4750 
z
" transform="scale(0.015625)"/>
        <path id="DejaVuSans-32" d="M 1228 531 
L 3431 531 
L 3431 0 
L 469 0 
L 469 531 
Q 828 903 1448 1529 
Q 2069 2156 2228 2338 
Q 2531 2678 2651 2914 
Q 2772 3150 2772 3378 
Q 2772 3750 2511 3984 
Q 2250 4219 1831 4219 
Q 1534 4219 1204 4116 
Q 875 4013 500 3803 
L 500 4441 
Q 881 4594 1212 4672 
Q 1544 4750 1819 4750 
Q 2544 4750 2975 4387 
Q 3406 4025 3406 3419 
Q 3406 3131 3298 2873 
Q 3191 2616 2906 2266 
Q 2828 2175 2409 1742 
Q 1991 1309 1228 531 
z
" transform="scale(0.015625)"/>
       </defs>
       <use xlink:href="#DejaVuSans-31" transform="translate(0 0.765625)"/>
       <use xlink:href="#DejaVuSans-30" transform="translate(63.623047 0.765625)"/>
       <use xlink:href="#DejaVuSans-32" transform="translate(128.203125 39.046875) scale(0.7)"/>
      </g>
     </g>
    </g>
    <g id="xtick_2">
     <g id="line2d_2">
      <g>
       <use xlink:href="#m8a88b857fc" x="183.87339" y="386.728" style="stroke: #000000; stroke-width: 0.8"/>
      </g>
     </g>
     <g id="text_2">
      <!-- $\mathdefault{10^{3}}$ -->
      <g transform="translate(175.07339 401.326437) scale(0.1 -0.1)">
       <defs>
        <path id="DejaVuSans-33" d="M 2597 2516 
Q 3050 2419 3304 2112 
Q 3559 1806 3559 1356 
Q 3559 666 3084 287 
Q 2609 -91 1734 -91 
Q 1441 -91 1130 -33 
Q 819 25 488 141 
L 488 750 
Q 750 597 1062 519 
Q 1375 441 1716 441 
Q 2309 441 2620 675 
Q 2931 909 2931 1356 
Q 2931 1769 2642 2001 
Q 2353 2234 1838 2234 
L 1294 2234 
L 1294 2753 
L 1863 2753 
Q 2328 2753 2575 2939 
Q 2822 3125 2822 3475 
Q 2822 3834 2567 4026 
Q 2313 4219 1838 4219 
Q 1578 4219 1281 4162 
Q 984 4106 628 3988 
L 628 4550 
Q 988 4650 1302 4700 
Q 1616 4750 1894 4750 
Q 2613 4750 3031 4423 
Q 3450 4097 3450 3541 
Q 3450 3153 3228 2886 
Q 3006 2619 2597 2516 
z
" transform="scale(0.015625)"/>
       </defs>
       <use xlink:href="#DejaVuSans-31" transform="translate(0 0.765625)"/>
       <use xlink:href="#DejaVuSans-30" transform="translate(63.623047 0.765625)"/>
       <use xlink:href="#DejaVuSans-33" transform="translate(128.203125 39.046875) scale(0.7)"/>
      </g>
     </g>
    </g>
    <g id="xtick_3">
     <g id="line2d_3">
      <g>
       <use xlink:href="#m8a88b857fc" x="289.959507" y="386.728" style="stroke: #000000; stroke-width: 0.8"/>
      </g>
     </g>
     <g id="text_3">
      <!-- $\mathdefault{10^{4}}$ -->
      <g transform="translate(281.159507 401.326437) scale(0.1 -0.1)">
       <defs>
        <path id="DejaVuSans-34" d="M 2419 4116 
L 825 1625 
L 2419 1625 
L 2419 4116 
z
M 2253 4666 
L 3047 4666 
L 3047 1625 
L 3713 1625 
L 3713 1100 
L 3047 1100 
L 3047 0 
L 2419 0 
L 2419 1100 
L 313 1100 
L 313 1709 
L 2253 4666 
z
" transform="scale(0.015625)"/>
       </defs>
       <use xlink:href="#DejaVuSans-31" transform="translate(0 0.684375)"/>
       <use xlink:href="#DejaVuSans-30" transform="translate(63.623047 0.684375)"/>
       <use xlink:href="#DejaVuSans-34" transform="translate(128.203125 38.965625) scale(0.7)"/>
      </g>
     </g>
    </g>
    <g id="xtick_4">
     <g id="line2d_4">
      <g>
       <use xlink:href="#m8a88b857fc" x="396.045624" y="386.728" style="stroke: #000000; stroke-width: 0.8"/>
      </g>
     </g>
     <g id="text_4">
      <!-- $\mathdefault{10^{5}}$ -->
      <g transform="translate(387.245624 401.326437) scale(0.1 -0.1)">
       <defs>
        <path id="DejaVuSans-35" d="M 691 4666 
L 3169 4666 
L 3169 4134 
L 1269 4134 
L 1269 2991 
Q 1406 3038 1543 3061 
Q 1681 3084 1819 3084 
Q 2600 3084 3056 2656 
Q 3513 2228 3513 1497 
Q 3513 744 3044 326 
Q 2575 -91 1722 -91 
Q 1428 -91 1123 -41 
Q 819 9 494 109 
L 494 744 
Q 775 591 1075 516 
Q 1375 441 1709 441 
Q 2250 441 2565 725 
Q 2881 1009 2881 1497 
Q 2881 1984 2565 2268 
Q 2250 2553 1709 2553 
Q 1456 2553 1204 2497 
Q 953 2441 691 2322 
L 691 4666 
z
" transform="scale(0.015625)"/>
       </defs>
       <use xlink:href="#DejaVuSans-31" transform="translate(0 0.684375)"/>
       <use xlink:href="#DejaVuSans-30" transform="translate(63.623047 0.684375)"/>
       <use xlink:href="#DejaVuSans-35" transform="translate(128.203125 38.965625) scale(0.7)"/>
      </g>
     </g>
    </g>
    <g id="xtick_5">
     <g id="line2d_5">
      <g>
       <use xlink:href="#m8a88b857fc" x="502.131741" y="386.728" style="stroke: #000000; stroke-width: 0.8"/>
      </g>
     </g>
     <g id="text_5">
      <!-- $\mathdefault{10^{6}}$ -->
      <g transform="translate(493.331741 401.326437) scale(0.1 -0.1)">
       <defs>
        <path id="DejaVuSans-36" d="M 2113 2584 
Q 1688 2584 1439 2293 
Q 1191 2003 1191 1497 
Q 1191 994 1439 701 
Q 1688 409 2113 409 
Q 2538 409 2786 701 
Q 3034 994 3034 1497 
Q 3034 2003 2786 2293 
Q 2538 2584 2113 2584 
z
M 3366 4563 
L 3366 3988 
Q 3128 4100 2886 4159 
Q 2644 4219 2406 4219 
Q 1781 4219 1451 3797 
Q 1122 3375 1075 2522 
Q 1259 2794 1537 2939 
Q 1816 3084 2150 3084 
Q 2853 3084 3261 2657 
Q 3669 2231 3669 1497 
Q 3669 778 3244 343 
Q 2819 -91 2113 -91 
Q 1303 -91 875 529 
Q 447 1150 447 2328 
Q 447 3434 972 4092 
Q 1497 4750 2381 4750 
Q 2619 4750 2861 4703 
Q 3103 4656 3366 4563 
z
" transform="scale(0.015625)"/>
       </defs>
       <use xlink:href="#DejaVuSans-31" transform="translate(0 0.765625)"/>
       <use xlink:href="#DejaVuSans-30" transform="translate(63.623047 0.765625)"/>
       <use xlink:href="#DejaVuSans-36" transform="translate(128.203125 39.046875) scale(0.7)"/>
      </g>
     </g>
    </g>
    <g id="xtick_6">
     <g id="line2d_6">
      <g>
       <use xlink:href="#m8a88b857fc" x="608.217858" y="386.728" style="stroke: #000000; stroke-width: 0.8"/>
      </g>
     </g>
     <g id="text_6">
      <!-- $\mathdefault{10^{7}}$ -->
      <g transform="translate(599.417858 401.326437) scale(0.1 -0.1)">
       <defs>
        <path id="DejaVuSans-37" d="M 525 4666 
L 3525 4666 
L 3525 4397 
L 1831 0 
L 1172 0 
L 2766 4134 
L 525 4134 
L 525 4666 
z
" transform="scale(0.015625)"/>
       </defs>
       <use xlink:href="#DejaVuSans-31" transform="translate(0 0.684375)"/>
       <use xlink:href="#DejaVuSans-30" transform="translate(63.623047 0.684375)"/>
       <use xlink:href="#DejaVuSans-37" transform="translate(128.203125 38.965625) scale(0.7)"/>
      </g>
     </g>
    </g>
    <g id="xtick_7">
     <g id="line2d_7">
      <defs>
       <path id="m602521237f" d="M 0 0 
L 0 2 
" style="stroke: #000000; stroke-width: 0.6"/>
      </defs>
      <g>
       <use xlink:href="#m602521237f" x="54.2522" y="386.728" style="stroke: #000000; stroke-width: 0.6"/>
      </g>
     </g>
    </g>
    <g id="xtick_8">
     <g id="line2d_8">
      <g>
       <use xlink:href="#m602521237f" x="61.354325" y="386.728" style="stroke: #000000; stroke-width: 0.6"/>
      </g>
     </g>
    </g>
    <g id="xtick_9">
     <g id="line2d_9">
      <g>
       <use xlink:href="#m602521237f" x="67.506466" y="386.728" style="stroke: #000000; stroke-width: 0.6"/>
      </g>
     </g>
    </g>
    <g id="xtick_10">
     <g id="line2d_10">
      <g>
       <use xlink:href="#m602521237f" x="72.933038" y="386.728" style="stroke: #000000; stroke-width: 0.6"/>
      </g>
     </g>
    </g>
    <g id="xtick_11">
     <g id="line2d_11">
      <g>
       <use xlink:href="#m602521237f" x="109.722376" y="386.728" style="stroke: #000000; stroke-width: 0.6"/>
      </g>
     </g>
    </g>
    <g id="xtick_12">
     <g id="line2d_12">
      <g>
       <use xlink:href="#m602521237f" x="128.403214" y="386.728" style="stroke: #000000; stroke-width: 0.6"/>
      </g>
     </g>
    </g>
    <g id="xtick_13">
     <g id="line2d_13">
      <g>
       <use xlink:href="#m602521237f" x="141.657479" y="386.728" style="stroke: #000000; stroke-width: 0.6"/>
      </g>
     </g>
    </g>
    <g id="xtick_14">
     <g id="line2d_14">
      <g>
       <use xlink:href="#m602521237f" x="151.938286" y="386.728" style="stroke: #000000; stroke-width: 0.6"/>
      </g>
     </g>
    </g>
    <g id="xtick_15">
     <g id="line2d_15">
      <g>
       <use xlink:href="#m602521237f" x="160.338317" y="386.728" style="stroke: #000000; stroke-width: 0.6"/>
      </g>
     </g>
    </g>
    <g id="xtick_16">
     <g id="line2d_16">
      <g>
       <use xlink:href="#m602521237f" x="167.440442" y="386.728" style="stroke: #000000; stroke-width: 0.6"/>
      </g>
     </g>
    </g>
    <g id="xtick_17">
     <g id="line2d_17">
      <g>
       <use xlink:href="#m602521237f" x="173.592583" y="386.728" style="stroke: #000000; stroke-width: 0.6"/>
      </g>
     </g>
    </g>
    <g id="xtick_18">
     <g id="line2d_18">
      <g>
       <use xlink:href="#m602521237f" x="179.019155" y="386.728" style="stroke: #000000; stroke-width: 0.6"/>
      </g>
     </g>
    </g>
    <g id="xtick_19">
     <g id="line2d_19">
      <g>
       <use xlink:href="#m602521237f" x="215.808493" y="386.728" style="stroke: #000000; stroke-width: 0.6"/>
      </g>
     </g>
    </g>
    <g id="xtick_20">
     <g id="line2d_20">
      <g>
       <use xlink:href="#m602521237f" x="234.489331" y="386.728" style="stroke: #000000; stroke-width: 0.6"/>
      </g>
     </g>
    </g>
    <g id="xtick_21">
     <g id="line2d_21">
      <g>
       <use xlink:href="#m602521237f" x="247.743596" y="386.728" style="stroke: #000000; stroke-width: 0.6"/>
      </g>
     </g>
    </g>
    <g id="xtick_22">
     <g id="line2d_22">
      <g>
       <use xlink:href="#m602521237f" x="258.024403" y="386.728" style="stroke: #000000; stroke-width: 0.6"/>
      </g>
     </g>
    </g>
    <g id="xtick_23">
     <g id="line2d_23">
      <g>
       <use xlink:href="#m602521237f" x="266.424434" y="386.728" style="stroke: #000000; stroke-width: 0.6"/>
      </g>
     </g>
    </g>
    <g id="xtick_24">
     <g id="line2d_24">
      <g>
       <use xlink:href="#m602521237f" x="273.526559" y="386.728" style="stroke: #000000; stroke-width: 0.6"/>
      </g>
     </g>
    </g>
    <g id="xtick_25">
     <g id="line2d_25">
      <g>
       <use xlink:href="#m602521237f" x="279.6787" y="386.728" style="stroke: #000000; stroke-width: 0.6"/>
      </g>
     </g>
    </g>
    <g id="xtick_26">
     <g id="line2d_26">
      <g>
       <use xlink:href="#m602521237f" x="285.105272" y="386.728" style="stroke: #000000; stroke-width: 0.6"/>
      </g>
     </g>
    </g>
    <g id="xtick_27">
     <g id="line2d_27">
      <g>
       <use xlink:href="#m602521237f" x="321.89461" y="386.728" style="stroke: #000000; stroke-width: 0.6"/>
      </g>
     </g>
    </g>
    <g id="xtick_28">
     <g id="line2d_28">
      <g>
       <use xlink:href="#m602521237f" x="340.575448" y="386.728" style="stroke: #000000; stroke-width: 0.6"/>
      </g>
     </g>
    </g>
    <g id="xtick_29">
     <g id="line2d_29">
      <g>
       <use xlink:href="#m602521237f" x="353.829713" y="386.728" style="stroke: #000000; stroke-width: 0.6"/>
      </g>
     </g>
    </g>
    <g id="xtick_30">
     <g id="line2d_30">
      <g>
       <use xlink:href="#m602521237f" x="364.11052" y="386.728" style="stroke: #000000; stroke-width: 0.6"/>
      </g>
     </g>
    </g>
    <g id="xtick_31">
     <g id="line2d_31">
      <g>
       <use xlink:href="#m602521237f" x="372.510551" y="386.728" style="stroke: #000000; stroke-width: 0.6"/>
      </g>
     </g>
    </g>
    <g id="xtick_32">
     <g id="line2d_32">
      <g>
       <use xlink:href="#m602521237f" x="379.612676" y="386.728" style="stroke: #000000; stroke-width: 0.6"/>
      </g>
     </g>
    </g>
    <g id="xtick_33">
     <g id="line2d_33">
      <g>
       <use xlink:href="#m602521237f" x="385.764817" y="386.728" style="stroke: #000000; stroke-width: 0.6"/>
      </g>
     </g>
    </g>
    <g id="xtick_34">
     <g id="line2d_34">
      <g>
       <use xlink:href="#m602521237f" x="391.191389" y="386.728" style="stroke: #000000; stroke-width: 0.6"/>
      </g>
     </g>
    </g>
    <g id="xtick_35">
     <g id="line2d_35">
      <g>
       <use xlink:href="#m602521237f" x="427.980727" y="386.728" style="stroke: #000000; stroke-width: 0.6"/>
      </g>
     </g>
    </g>
    <g id="xtick_36">
     <g id="line2d_36">
      <g>
       <use xlink:href="#m602521237f" x="446.661565" y="386.728" style="stroke: #000000; stroke-width: 0.6"/>
      </g>
     </g>
    </g>
    <g id="xtick_37">
     <g id="line2d_37">
      <g>
       <use xlink:href="#m602521237f" x="459.91583" y="386.728" style="stroke: #000000; stroke-width: 0.6"/>
      </g>
     </g>
    </g>
    <g id="xtick_38">
     <g id="line2d_38">
      <g>
       <use xlink:href="#m602521237f" x="470.196637" y="386.728" style="stroke: #000000; stroke-width: 0.6"/>
      </g>
     </g>
    </g>
    <g id="xtick_39">
     <g id="line2d_39">
      <g>
       <use xlink:href="#m602521237f" x="478.596668" y="386.728" style="stroke: #000000; stroke-width: 0.6"/>
      </g>
     </g>
    </g>
    <g id="xtick_40">
     <g id="line2d_40">
      <g>
       <use xlink:href="#m602521237f" x="485.698793" y="386.728" style="stroke: #000000; stroke-width: 0.6"/>
      </g>
     </g>
    </g>
    <g id="xtick_41">
     <g id="line2d_41">
      <g>
       <use xlink:href="#m602521237f" x="491.850934" y="386.728" style="stroke: #000000; stroke-width: 0.6"/>
      </g>
     </g>
    </g>
    <g id="xtick_42">
     <g id="line2d_42">
      <g>
       <use xlink:href="#m602521237f" x="497.277506" y="386.728" style="stroke: #000000; stroke-width: 0.6"/>
      </g>
     </g>
    </g>
    <g id="xtick_43">
     <g id="line2d_43">
      <g>
       <use xlink:href="#m602521237f" x="534.066844" y="386.728" style="stroke: #000000; stroke-width: 0.6"/>
      </g>
     </g>
    </g>
    <g id="xtick_44">
     <g id="line2d_44">
      <g>
       <use xlink:href="#m602521237f" x="552.747682" y="386.728" style="stroke: #000000; stroke-width: 0.6"/>
      </g>
     </g>
    </g>
    <g id="xtick_45">
     <g id="line2d_45">
      <g>
       <use xlink:href="#m602521237f" x="566.001947" y="386.728" style="stroke: #000000; stroke-width: 0.6"/>
      </g>
     </g>
    </g>
    <g id="xtick_46">
     <g id="line2d_46">
      <g>
       <use xlink:href="#m602521237f" x="576.282754" y="386.728" style="stroke: #000000; stroke-width: 0.6"/>
      </g>
     </g>
    </g>
    <g id="xtick_47">
     <g id="line2d_47">
      <g>
       <use xlink:href="#m602521237f" x="584.682785" y="386.728" style="stroke: #000000; stroke-width: 0.6"/>
      </g>
     </g>
    </g>
    <g id="xtick_48">
     <g id="line2d_48">
      <g>
       <use xlink:href="#m602521237f" x="591.78491" y="386.728" style="stroke: #000000; stroke-width: 0.6"/>
      </g>
     </g>
    </g>
    <g id="xtick_49">
     <g id="line2d_49">
      <g>
       <use xlink:href="#m602521237f" x="597.937051" y="386.728" style="stroke: #000000; stroke-width: 0.6"/>
      </g>
     </g>
    </g>
    <g id="xtick_50">
     <g id="line2d_50">
      <g>
       <use xlink:href="#m602521237f" x="603.363623" y="386.728" style="stroke: #000000; stroke-width: 0.6"/>
      </g>
     </g>
    </g>
    <g id="xtick_51">
     <g id="line2d_51">
      <g>
       <use xlink:href="#m602521237f" x="640.152961" y="386.728" style="stroke: #000000; stroke-width: 0.6"/>
      </g>
     </g>
    </g>
    <g id="xtick_52">
     <g id="line2d_52">
      <g>
       <use xlink:href="#m602521237f" x="658.833799" y="386.728" style="stroke: #000000; stroke-width: 0.6"/>
      </g>
     </g>
    </g>
    <g id="xtick_53">
     <g id="line2d_53">
      <g>
       <use xlink:href="#m602521237f" x="672.088064" y="386.728" style="stroke: #000000; stroke-width: 0.6"/>
      </g>
     </g>
    </g>
    <g id="xtick_54">
     <g id="line2d_54">
      <g>
       <use xlink:href="#m602521237f" x="682.368871" y="386.728" style="stroke: #000000; stroke-width: 0.6"/>
      </g>
     </g>
    </g>
    <g id="xtick_55">
     <g id="line2d_55">
      <g>
       <use xlink:href="#m602521237f" x="690.768902" y="386.728" style="stroke: #000000; stroke-width: 0.6"/>
      </g>
     </g>
    </g>
    <g id="xtick_56">
     <g id="line2d_56">
      <g>
       <use xlink:href="#m602521237f" x="697.871027" y="386.728" style="stroke: #000000; stroke-width: 0.6"/>
      </g>
     </g>
    </g>
    <g id="xtick_57">
     <g id="line2d_57">
      <g>
       <use xlink:href="#m602521237f" x="704.023168" y="386.728" style="stroke: #000000; stroke-width: 0.6"/>
      </g>
     </g>
    </g>
    <g id="text_7">
     <!-- Latency (ns) -->
     <g transform="translate(347.431875 415.004563) scale(0.1 -0.1)">
      <defs>
       <path id="DejaVuSans-4c" d="M 628 4666 
L 1259 4666 
L 1259 531 
L 3531 531 
L 3531 0 
L 628 0 
L 628 4666 
z
" transform="scale(0.015625)"/>
       <path id="DejaVuSans-61" d="M 2194 1759 
Q 1497 1759 1228 1600 
Q 959 1441 959 1056 
Q 959 750 1161 570 
Q 1363 391 1709 391 
Q 2188 391 2477 730 
Q 2766 1069 2766 1631 
L 2766 1759 
L 2194 1759 
z
M 3341 1997 
L 3341 0 
L 2766 0 
L 2766 531 
Q 2569 213 2275 61 
Q 1981 -91 1556 -91 
Q 1019 -91 701 211 
Q 384 513 384 1019 
Q 384 1609 779 1909 
Q 1175 2209 1959 2209 
L 2766 2209 
L 2766 2266 
Q 2766 2663 2505 2880 
Q 2244 3097 1772 3097 
Q 1472 3097 1187 3025 
Q 903 2953 641 2809 
L 641 3341 
Q 956 3463 1253 3523 
Q 1550 3584 1831 3584 
Q 2591 3584 2966 3190 
Q 3341 2797 3341 1997 
z
" transform="scale(0.015625)"/>
       <path id="DejaVuSans-74" d="M 1172 4494 
L 1172 3500 
L 2356 3500 
L 2356 3053 
L 1172 3053 
L 1172 1153 
Q 1172 725 1289 603 
Q 1406 481 1766 481 
L 2356 481 
L 2356 0 
L 1766 0 
Q 1100 0 847 248 
Q 594 497 594 1153 
L 594 3053 
L 172 3053 
L 172 3500 
L 594 3500 
L 594 4494 
L 1172 4494 
z
" transform="scale(0.015625)"/>
       <path id="DejaVuSans-65" d="M 3597 1894 
L 3597 1613 
L 953 1613 
Q 991 1019 1311 708 
Q 1631 397 2203 397 
Q 2534 397 2845 478 
Q 3156 559 3463 722 
L 3463 178 
Q 3153 47 2828 -22 
Q 2503 -91 2169 -91 
Q 1331 -91 842 396 
Q 353 884 353 1716 
Q 353 2575 817 3079 
Q 1281 3584 2069 3584 
Q 2775 3584 3186 3129 
Q 3597 2675 3597 1894 
z
M 3022 2063 
Q 3016 2534 2758 2815 
Q 2500 3097 2075 3097 
Q 1594 3097 1305 2825 
Q 1016 2553 972 2059 
L 3022 2063 
z
" transform="scale(0.015625)"/>
       <path id="DejaVuSans-6e" d="M 3513 2113 
L 3513 0 
L 2938 0 
L 2938 2094 
Q 2938 2591 2744 2837 
Q 2550 3084 2163 3084 
Q 1697 3084 1428 2787 
Q 1159 2491 1159 1978 
L 1159 0 
L 581 0 
L 581 3500 
L 1159 3500 
L 1159 2956 
Q 1366 3272 1645 3428 
Q 1925 3584 2291 3584 
Q 2894 3584 3203 3211 
Q 3513 2838 3513 2113 
z
" transform="scale(0.015625)"/>
       <path id="DejaVuSans-63" d="M 3122 3366 
L 3122 2828 
Q 2878 2963 2633 3030 
Q 2388 3097 2138 3097 
Q 1578 3097 1268 2742 
Q 959 2388 959 1747 
Q 959 1106 1268 751 
Q 1578 397 2138 397 
Q 2388 397 2633 464 
Q 2878 531 3122 666 
L 3122 134 
Q 2881 22 2623 -34 
Q 2366 -91 2075 -91 
Q 1284 -91 818 406 
Q 353 903 353 1747 
Q 353 2603 823 3093 
Q 1294 3584 2113 3584 
Q 2378 3584 2631 3529 
Q 2884 3475 3122 3366 
z
" transform="scale(0.015625)"/>
       <path id="DejaVuSans-79" d="M 2059 -325 
Q 1816 -950 1584 -1140 
Q 1353 -1331 966 -1331 
L 506 -1331 
L 506 -850 
L 844 -850 
Q 1081 -850 1212 -737 
Q 1344 -625 1503 -206 
L 1606 56 
L 191 3500 
L 800 3500 
L 1894 763 
L 2988 3500 
L 3597 3500 
L 2059 -325 
z
" transform="scale(0.015625)"/>
       <path id="DejaVuSans-20" transform="scale(0.015625)"/>
       <path id="DejaVuSans-28" d="M 1984 4856 
Q 1566 4138 1362 3434 
Q 1159 2731 1159 2009 
Q 1159 1288 1364 580 
Q 1569 -128 1984 -844 
L 1484 -844 
Q 1016 -109 783 600 
Q 550 1309 550 2009 
Q 550 2706 781 3412 
Q 1013 4119 1484 4856 
L 1984 4856 
z
" transform="scale(0.015625)"/>
       <path id="DejaVuSans-73" d="M 2834 3397 
L 2834 2853 
Q 2591 2978 2328 3040 
Q 2066 3103 1784 3103 
Q 1356 3103 1142 2972 
Q 928 2841 928 2578 
Q 928 2378 1081 2264 
Q 1234 2150 1697 2047 
L 1894 2003 
Q 2506 1872 2764 1633 
Q 3022 1394 3022 966 
Q 3022 478 2636 193 
Q 2250 -91 1575 -91 
Q 1294 -91 989 -36 
Q 684 19 347 128 
L 347 722 
Q 666 556 975 473 
Q 1284 391 1588 391 
Q 1994 391 2212 530 
Q 2431 669 2431 922 
Q 2431 1156 2273 1281 
Q 2116 1406 1581 1522 
L 1381 1569 
Q 847 1681 609 1914 
Q 372 2147 372 2553 
Q 372 3047 722 3315 
Q 1072 3584 1716 3584 
Q 2034 3584 2315 3537 
Q 2597 3491 2834 3397 
z
" transform="scale(0.015625)"/>
       <path id="DejaVuSans-29" d="M 513 4856 
L 1013 4856 
Q 1481 4119 1714 3412 
Q 1947 2706 1947 2009 
Q 1947 1309 1714 600 
Q 1481 -109 1013 -844 
L 513 -844 
Q 928 -128 1133 580 
Q 1338 1288 1338 2009 
Q 1338 2731 1133 3434 
Q 928 4138 513 4856 
z
" transform="scale(0.015625)"/>
      </defs>
      <use xlink:href="#DejaVuSans-4c"/>
      <use xlink:href="#DejaVuSans-61" transform="translate(55.712891 0)"/>
      <use xlink:href="#DejaVuSans-74" transform="translate(116.992188 0)"/>
      <use xlink:href="#DejaVuSans-65" transform="translate(156.201172 0)"/>
      <use xlink:href="#DejaVuSans-6e" transform="translate(217.724609 0)"/>
      <use xlink:href="#DejaVuSans-63" transform="translate(281.103516 0)"/>
      <use xlink:href="#DejaVuSans-79" transform="translate(336.083984 0)"/>
      <use xlink:href="#DejaVuSans-20" transform="translate(395.263672 0)"/>
      <use xlink:href="#DejaVuSans-28" transform="translate(427.050781 0)"/>
      <use xlink:href="#DejaVuSans-6e" transform="translate(466.064453 0)"/>
      <use xlink:href="#DejaVuSans-73" transform="translate(529.443359 0)"/>
      <use xlink:href="#DejaVuSans-29" transform="translate(581.542969 0)"/>
     </g>
    </g>
   </g>
   <g id="matplotlib.axis_2">
    <g id="ytick_1">
     <g id="line2d_58">
      <defs>
       <path id="m7103e598c2" d="M 0 0 
L -3.5 0 
" style="stroke: #000000; stroke-width: 0.8"/>
      </defs>
      <g>
       <use xlink:href="#m7103e598c2" x="47.72" y="370.371273" style="stroke: #000000; stroke-width: 0.8"/>
      </g>
     </g>
     <g id="text_8">
      <!-- 0.0 -->
      <g transform="translate(24.816875 374.170491) scale(0.1 -0.1)">
       <defs>
        <path id="DejaVuSans-2e" d="M 684 794 
L 1344 794 
L 1344 0 
L 684 0 
L 684 794 
z
" transform="scale(0.015625)"/>
       </defs>
       <use xlink:href="#DejaVuSans-30"/>
       <use xlink:href="#DejaVuSans-2e" transform="translate(63.623047 0)"/>
       <use xlink:href="#DejaVuSans-30" transform="translate(95.410156 0)"/>
      </g>
     </g>
    </g>
    <g id="ytick_2">
     <g id="line2d_59">
      <g>
       <use xlink:href="#m7103e598c2" x="47.72" y="304.943709" style="stroke: #000000; stroke-width: 0.8"/>
      </g>
     </g>
     <g id="text_9">
      <!-- 0.2 -->
      <g transform="translate(24.816875 308.742928) scale(0.1 -0.1)">
       <use xlink:href="#DejaVuSans-30"/>
       <use xlink:href="#DejaVuSans-2e" transform="translate(63.623047 0)"/>
       <use xlink:href="#DejaVuSans-32" transform="translate(95.410156 0)"/>
      </g>
     </g>
    </g>
    <g id="ytick_3">
     <g id="line2d_60">
      <g>
       <use xlink:href="#m7103e598c2" x="47.72" y="239.516146" style="stroke: #000000; stroke-width: 0.8"/>
      </g>
     </g>
     <g id="text_10">
      <!-- 0.4 -->
      <g transform="translate(24.816875 243.315365) scale(0.1 -0.1)">
       <use xlink:href="#DejaVuSans-30"/>
       <use xlink:href="#DejaVuSans-2e" transform="translate(63.623047 0)"/>
       <use xlink:href="#DejaVuSans-34" transform="translate(95.410156 0)"/>
      </g>
     </g>
    </g>
    <g id="ytick_4">
     <g id="line2d_61">
      <g>
       <use xlink:href="#m7103e598c2" x="47.72" y="174.088583" style="stroke: #000000; stroke-width: 0.8"/>
      </g>
     </g>
     <g id="text_11">
      <!-- 0.6 -->
      <g transform="translate(24.816875 177.887801) scale(0.1 -0.1)">
       <use xlink:href="#DejaVuSans-30"/>
       <use xlink:href="#DejaVuSans-2e" transform="translate(63.623047 0)"/>
       <use xlink:href="#DejaVuSans-36" transform="translate(95.410156 0)"/>
      </g>
     </g>
    </g>
    <g id="ytick_5">
     <g id="line2d_62">
      <g>
       <use xlink:href="#m7103e598c2" x="47.72" y="108.661019" style="stroke: #000000; stroke-width: 0.8"/>
      </g>
     </g>
     <g id="text_12">
      <!-- 0.8 -->
      <g transform="translate(24.816875 112.460238) scale(0.1 -0.1)">
       <defs>
        <path id="DejaVuSans-38" d="M 2034 2216 
Q 1584 2216 1326 1975 
Q 1069 1734 1069 1313 
Q 1069 891 1326 650 
Q 1584 409 2034 409 
Q 2484 409 2743 651 
Q 3003 894 3003 1313 
Q 3003 1734 2745 1975 
Q 2488 2216 2034 2216 
z
M 1403 2484 
Q 997 2584 770 2862 
Q 544 3141 544 3541 
Q 544 4100 942 4425 
Q 1341 4750 2034 4750 
Q 2731 4750 3128 4425 
Q 3525 4100 3525 3541 
Q 3525 3141 3298 2862 
Q 3072 2584 2669 2484 
Q 3125 2378 3379 2068 
Q 3634 1759 3634 1313 
Q 3634 634 3220 271 
Q 2806 -91 2034 -91 
Q 1263 -91 848 271 
Q 434 634 434 1313 
Q 434 1759 690 2068 
Q 947 2378 1403 2484 
z
M 1172 3481 
Q 1172 3119 1398 2916 
Q 1625 2713 2034 2713 
Q 2441 2713 2670 2916 
Q 2900 3119 2900 3481 
Q 2900 3844 2670 4047 
Q 2441 4250 2034 4250 
Q 1625 4250 1398 4047 
Q 1172 3844 1172 3481 
z
" transform="scale(0.015625)"/>
       </defs>
       <use xlink:href="#DejaVuSans-30"/>
       <use xlink:href="#DejaVuSans-2e" transform="translate(63.623047 0)"/>
       <use xlink:href="#DejaVuSans-38" transform="translate(95.410156 0)"/>
      </g>
     </g>
    </g>
    <g id="ytick_6">
     <g id="line2d_63">
      <g>
       <use xlink:href="#m7103e598c2" x="47.72" y="43.233456" style="stroke: #000000; stroke-width: 0.8"/>
      </g>
     </g>
     <g id="text_13">
      <!-- 1.0 -->
      <g transform="translate(24.816875 47.032675) scale(0.1 -0.1)">
       <use xlink:href="#DejaVuSans-31"/>
       <use xlink:href="#DejaVuSans-2e" transform="translate(63.623047 0)"/>
       <use xlink:href="#DejaVuSans-30" transform="translate(95.410156 0)"/>
      </g>
     </g>
    </g>
    <g id="text_14">
     <!-- Empirical CDF -->
     <g transform="translate(18.737188 241.850094) rotate(-90) scale(0.1 -0.1)">
      <defs>
       <path id="DejaVuSans-45" d="M 628 4666 
L 3578 4666 
L 3578 4134 
L 1259 4134 
L 1259 2753 
L 3481 2753 
L 3481 2222 
L 1259 2222 
L 1259 531 
L 3634 531 
L 3634 0 
L 628 0 
L 628 4666 
z
" transform="scale(0.015625)"/>
       <path id="DejaVuSans-6d" d="M 3328 2828 
Q 3544 3216 3844 3400 
Q 4144 3584 4550 3584 
Q 5097 3584 5394 3201 
Q 5691 2819 5691 2113 
L 5691 0 
L 5113 0 
L 5113 2094 
Q 5113 2597 4934 2840 
Q 4756 3084 4391 3084 
Q 3944 3084 3684 2787 
Q 3425 2491 3425 1978 
L 3425 0 
L 2847 0 
L 2847 2094 
Q 2847 2600 2669 2842 
Q 2491 3084 2119 3084 
Q 1678 3084 1418 2786 
Q 1159 2488 1159 1978 
L 1159 0 
L 581 0 
L 581 3500 
L 1159 3500 
L 1159 2956 
Q 1356 3278 1631 3431 
Q 1906 3584 2284 3584 
Q 2666 3584 2933 3390 
Q 3200 3197 3328 2828 
z
" transform="scale(0.015625)"/>
       <path id="DejaVuSans-70" d="M 1159 525 
L 1159 -1331 
L 581 -1331 
L 581 3500 
L 1159 3500 
L 1159 2969 
Q 1341 3281 1617 3432 
Q 1894 3584 2278 3584 
Q 2916 3584 3314 3078 
Q 3713 2572 3713 1747 
Q 3713 922 3314 415 
Q 2916 -91 2278 -91 
Q 1894 -91 1617 61 
Q 1341 213 1159 525 
z
M 3116 1747 
Q 3116 2381 2855 2742 
Q 2594 3103 2138 3103 
Q 1681 3103 1420 2742 
Q 1159 2381 1159 1747 
Q 1159 1113 1420 752 
Q 1681 391 2138 391 
Q 2594 391 2855 752 
Q 3116 1113 3116 1747 
z
" transform="scale(0.015625)"/>
       <path id="DejaVuSans-69" d="M 603 3500 
L 1178 3500 
L 1178 0 
L 603 0 
L 603 3500 
z
M 603 4863 
L 1178 4863 
L 1178 4134 
L 603 4134 
L 603 4863 
z
" transform="scale(0.015625)"/>
       <path id="DejaVuSans-72" d="M 2631 2963 
Q 2534 3019 2420 3045 
Q 2306 3072 2169 3072 
Q 1681 3072 1420 2755 
Q 1159 2438 1159 1844 
L 1159 0 
L 581 0 
L 581 3500 
L 1159 3500 
L 1159 2956 
Q 1341 3275 1631 3429 
Q 1922 3584 2338 3584 
Q 2397 3584 2469 3576 
Q 2541 3569 2628 3553 
L 2631 2963 
z
" transform="scale(0.015625)"/>
       <path id="DejaVuSans-6c" d="M 603 4863 
L 1178 4863 
L 1178 0 
L 603 0 
L 603 4863 
z
" transform="scale(0.015625)"/>
       <path id="DejaVuSans-43" d="M 4122 4306 
L 4122 3641 
Q 3803 3938 3442 4084 
Q 3081 4231 2675 4231 
Q 1875 4231 1450 3742 
Q 1025 3253 1025 2328 
Q 1025 1406 1450 917 
Q 1875 428 2675 428 
Q 3081 428 3442 575 
Q 3803 722 4122 1019 
L 4122 359 
Q 3791 134 3420 21 
Q 3050 -91 2638 -91 
Q 1578 -91 968 557 
Q 359 1206 359 2328 
Q 359 3453 968 4101 
Q 1578 4750 2638 4750 
Q 3056 4750 3426 4639 
Q 3797 4528 4122 4306 
z
" transform="scale(0.015625)"/>
       <path id="DejaVuSans-44" d="M 1259 4147 
L 1259 519 
L 2022 519 
Q 2988 519 3436 956 
Q 3884 1394 3884 2338 
Q 3884 3275 3436 3711 
Q 2988 4147 2022 4147 
L 1259 4147 
z
M 628 4666 
L 1925 4666 
Q 3281 4666 3915 4102 
Q 4550 3538 4550 2338 
Q 4550 1131 3912 565 
Q 3275 0 1925 0 
L 628 0 
L 628 4666 
z
" transform="scale(0.015625)"/>
       <path id="DejaVuSans-46" d="M 628 4666 
L 3309 4666 
L 3309 4134 
L 1259 4134 
L 1259 2759 
L 3109 2759 
L 3109 2228 
L 1259 2228 
L 1259 0 
L 628 0 
L 628 4666 
z
" transform="scale(0.015625)"/>
      </defs>
      <use xlink:href="#DejaVuSans-45"/>
      <use xlink:href="#DejaVuSans-6d" transform="translate(63.183594 0)"/>
      <use xlink:href="#DejaVuSans-70" transform="translate(160.595703 0)"/>
      <use xlink:href="#DejaVuSans-69" transform="translate(224.072266 0)"/>
      <use xlink:href="#DejaVuSans-72" transform="translate(251.855469 0)"/>
      <use xlink:href="#DejaVuSans-69" transform="translate(292.96875 0)"/>
      <use xlink:href="#DejaVuSans-63" transform="translate(320.751953 0)"/>
      <use xlink:href="#DejaVuSans-61" transform="translate(375.732422 0)"/>
      <use xlink:href="#DejaVuSans-6c" transform="translate(437.011719 0)"/>
      <use xlink:href="#DejaVuSans-20" transform="translate(464.794922 0)"/>
      <use xlink:href="#DejaVuSans-43" transform="translate(496.582031 0)"/>
      <use xlink:href="#DejaVuSans-44" transform="translate(566.40625 0)"/>
      <use xlink:href="#DejaVuSans-46" transform="translate(643.408203 0)"/>
     </g>
    </g>
   </g>
   <g id="line2d_64">
    <path d="M 77.787273 370.371273 
L 77.787273 368.846811 
L 109.722376 368.735584 
L 109.722376 364.40755 
L 128.403214 364.296323 
L 128.403214 333.427599 
L 141.657479 333.316372 
L 141.657479 212.046384 
L 151.938286 211.935157 
L 151.938286 125.757242 
L 160.338317 125.646015 
L 160.338317 88.98368 
L 167.440442 88.872453 
L 167.440442 79.728951 
L 173.592583 79.617724 
L 173.592583 75.152293 
L 179.019155 75.041066 
L 179.019155 72.001956 
L 183.87339 71.890729 
L 183.87339 69.85266 
L 188.264579 69.741433 
L 188.264579 68.537566 
L 192.273421 68.426339 
L 192.273421 67.601952 
L 195.961198 67.490725 
L 195.961198 66.88552 
L 199.375546 66.774293 
L 199.375546 66.3392 
L 202.554228 66.227973 
L 202.554228 65.881207 
L 205.527686 65.76998 
L 205.527686 65.4363 
L 208.320821 65.325073 
L 208.320821 65.037191 
L 210.954259 64.925965 
L 210.954259 64.798381 
L 213.445277 64.687154 
L 213.445277 64.592284 
L 215.808493 64.481057 
L 215.808493 64.435258 
L 218.056384 64.324031 
L 218.056384 64.304403 
L 222.247691 64.189904 
L 222.247691 64.160462 
L 226.0893 64.045964 
L 226.0893 64.003436 
L 229.635096 63.888938 
L 229.635096 63.803882 
L 234.489331 63.686112 
L 234.489331 63.676298 
L 238.88052 63.558528 
L 238.88052 63.529086 
L 242.889362 63.411316 
L 242.889362 63.385145 
L 246.577139 63.267376 
L 246.577139 63.221577 
L 251.075598 63.100536 
L 251.075598 63.090721 
L 254.182795 62.972952 
L 254.182795 62.956595 
L 258.024403 62.835554 
L 258.024403 62.829011 
L 262.415593 62.704699 
L 262.415593 62.681799 
L 265.650086 62.560758 
L 265.650086 62.534587 
L 268.672325 62.413546 
L 268.672325 62.410275 
L 272.191028 62.285962 
L 272.191028 62.269605 
L 274.824465 62.148564 
L 274.824465 62.132208 
L 277.315484 62.011167 
L 277.315484 62.004624 
L 280.251038 61.880311 
L 280.251038 61.863955 
L 283.543339 61.736371 
L 283.543339 61.723285 
L 286.615985 61.595702 
L 286.615985 61.566259 
L 288.556171 61.445218 
L 288.556171 61.409233 
L 290.417944 61.288192 
L 290.417944 61.281649 
L 292.644108 61.157337 
L 292.644108 61.121352 
L 295.180856 60.993768 
L 295.180856 60.970868 
L 297.97399 60.840013 
L 297.97399 60.823656 
L 300.97164 60.68953 
L 300.97164 60.682987 
L 303.443561 60.552132 
L 303.443561 60.548861 
L 306.438504 60.411463 
L 306.438504 60.40492 
L 309.250587 60.267522 
L 309.250587 60.260979 
L 315.212893 60.087596 
L 315.212893 60.084325 
L 319.773245 59.917485 
L 319.773245 59.914213 
L 325.011821 59.770273 
L 325.011821 59.760458 
L 335.550257 59.488934 
L 408.026987 58.203282 
L 440.280688 57.990643 
L 445.934047 57.944844 
L 479.546653 57.598077 
L 585.249814 56.001645 
L 602.082564 55.605808 
L 605.560781 55.465139 
L 616.836598 54.568781 
L 617.042101 54.555696 
L 618.047532 54.421569 
L 618.469169 54.359413 
L 619.623371 54.169673 
L 619.83546 54.117331 
L 623.852446 53.109747 
L 623.988753 53.027962 
L 624.340755 52.85785 
L 624.988795 52.494727 
L 625.428816 52.21666 
L 625.558963 52.115248 
L 626.100915 51.578742 
L 626.241333 51.411901 
L 626.434099 51.186176 
L 626.712185 50.607142 
L 626.793222 50.427216 
L 626.992588 49.979038 
L 627.262153 49.570115 
L 627.398778 49.328033 
L 627.535907 49.036881 
L 627.661754 48.827513 
L 627.825506 48.546174 
L 628.200569 47.761043 
L 628.311214 47.496062 
L 628.599548 47.015169 
L 628.804528 46.681488 
L 629.466664 45.781859 
L 629.843926 44.790632 
L 629.951561 44.613977 
L 630.347695 44.362081 
L 635.007808 43.822304 
L 651.148948 43.367582 
L 679.132727 43.236727 
L 679.132727 43.236727 
" clip-path="url(#p57f1f2ae99)" style="fill: none; stroke: #1f77b4; stroke-width: 1.5; stroke-linecap: square"/>
   </g>
   <g id="line2d_65">
    <path d="M 128.403214 370.371273 
L 128.403214 370.354916 
L 141.657479 370.243689 
L 141.657479 370.112834 
L 151.938286 370.001607 
L 151.938286 369.448744 
L 160.338317 369.337517 
L 160.338317 368.388818 
L 167.440442 368.277591 
L 167.440442 366.805471 
L 173.592583 366.694244 
L 173.592583 365.346436 
L 179.019155 365.235209 
L 179.019155 363.982271 
L 183.87339 363.871044 
L 183.87339 362.726062 
L 188.264579 362.614835 
L 188.264579 362.029258 
L 192.273421 361.918032 
L 192.273421 361.473124 
L 195.961198 361.361897 
L 195.961198 361.132901 
L 199.375546 361.021674 
L 199.375546 360.939889 
L 202.554228 360.828663 
L 202.554228 360.79922 
L 205.527686 360.687993 
L 205.527686 360.570224 
L 208.320821 360.458997 
L 208.320821 360.001004 
L 210.954259 359.889777 
L 210.954259 359.166803 
L 213.445277 359.055576 
L 213.445277 358.545241 
L 215.808493 358.434014 
L 215.808493 358.090519 
L 218.056384 357.979292 
L 218.056384 357.76011 
L 220.199682 357.648883 
L 220.199682 357.616169 
L 224.208524 357.501671 
L 224.208524 357.374087 
L 226.0893 357.26286 
L 226.0893 357.197433 
L 227.896301 357.086206 
L 227.896301 356.935723 
L 229.635096 356.824496 
L 229.635096 356.588957 
L 231.310649 356.47773 
L 231.310649 356.058993 
L 232.927398 355.947766 
L 232.927398 355.525759 
L 234.489331 355.414532 
L 234.489331 355.074308 
L 236.000044 354.963082 
L 236.000044 354.655572 
L 237.462789 354.544345 
L 237.462789 354.282635 
L 238.88052 354.171408 
L 238.88052 353.955497 
L 240.255924 353.84427 
L 240.255924 353.615274 
L 241.591456 353.504047 
L 241.591456 353.261965 
L 242.889362 353.150738 
L 242.889362 352.889028 
L 244.151704 352.777801 
L 244.151704 352.568433 
L 245.38038 352.457206 
L 245.38038 352.218395 
L 246.577139 352.107168 
L 246.577139 351.868358 
L 247.743596 351.757131 
L 247.743596 351.593562 
L 248.88125 351.482335 
L 248.88125 351.286052 
L 249.991487 351.174826 
L 249.991487 351.057056 
L 251.075598 350.945829 
L 251.075598 350.831331 
L 252.134786 350.720104 
L 252.134786 350.582706 
L 253.170169 350.471479 
L 253.170169 350.379881 
L 254.182795 350.268654 
L 254.182795 350.14107 
L 255.173642 350.029843 
L 255.173642 349.853189 
L 256.143627 349.741962 
L 256.143627 349.575122 
L 257.093612 349.463895 
L 257.093612 349.329768 
L 258.024403 349.218541 
L 258.024403 349.015716 
L 258.936762 348.904489 
L 258.936762 348.642779 
L 259.831404 348.531552 
L 259.831404 348.299284 
L 260.709004 348.188057 
L 260.709004 347.929618 
L 261.5702 347.818392 
L 261.5702 347.487982 
L 262.415593 347.376756 
L 262.415593 346.997276 
L 263.245752 346.886049 
L 263.245752 346.421513 
L 264.061218 346.310286 
L 264.061218 345.809765 
L 264.862501 345.698539 
L 264.862501 345.207832 
L 265.650086 345.096605 
L 265.650086 344.632069 
L 266.424434 344.520842 
L 266.424434 343.925452 
L 267.185982 343.814225 
L 267.185982 343.01928 
L 267.935147 342.908053 
L 267.935147 341.278907 
L 268.672325 341.16768 
L 268.672325 337.601878 
L 269.397893 337.490651 
L 269.397893 332.966335 
L 270.112211 332.855108 
L 270.112211 327.568561 
L 270.815624 327.457334 
L 270.815624 321.346399 
L 271.508458 321.235173 
L 271.508458 313.884386 
L 272.191028 313.773159 
L 272.191028 301.338651 
L 272.863632 301.227424 
L 272.863632 283.709194 
L 273.526559 283.597967 
L 273.526559 261.866202 
L 274.180082 261.754975 
L 274.180082 240.144251 
L 274.824465 240.033024 
L 274.824465 218.451742 
L 275.45996 218.340515 
L 275.45996 199.376336 
L 276.086808 199.265109 
L 276.086808 182.221229 
L 276.705241 182.110002 
L 276.705241 167.784637 
L 277.315484 167.67341 
L 277.315484 155.73288 
L 277.917749 155.621653 
L 277.917749 146.023429 
L 278.512242 145.912202 
L 278.512242 138.250635 
L 279.099162 138.139408 
L 279.099162 131.982674 
L 279.6787 131.871447 
L 279.6787 126.853153 
L 280.251038 126.741926 
L 280.251038 122.675603 
L 280.816353 122.564376 
L 280.816353 118.910247 
L 281.374816 118.79902 
L 281.374816 115.59307 
L 281.92659 115.481843 
L 281.92659 112.622658 
L 282.471835 112.511431 
L 282.471835 109.648975 
L 283.010702 109.537749 
L 283.010702 106.609865 
L 283.543339 106.498638 
L 283.543339 103.410457 
L 284.069889 103.29923 
L 284.069889 100.171793 
L 284.590489 100.060566 
L 284.590489 97.047627 
L 285.105272 96.9364 
L 285.105272 93.890747 
L 285.614367 93.77952 
L 285.614367 91.00212 
L 286.117898 90.890893 
L 286.117898 88.178921 
L 286.615985 88.067694 
L 286.615985 85.689402 
L 287.108745 85.578175 
L 287.108745 83.451779 
L 287.59629 83.340552 
L 287.59629 81.345012 
L 288.078731 81.233785 
L 288.078731 79.450884 
L 288.556171 79.339657 
L 288.556171 77.883893 
L 289.028715 77.772667 
L 289.028715 76.320175 
L 289.496461 76.208948 
L 289.496461 74.985452 
L 289.959507 74.874226 
L 289.959507 73.706344 
L 290.417944 73.595117 
L 290.417944 72.656231 
L 290.871866 72.545004 
L 290.871866 71.687903 
L 291.321358 71.576676 
L 291.321358 70.866787 
L 291.766508 70.75556 
L 291.766508 70.124184 
L 292.207397 70.012958 
L 292.207397 69.505894 
L 292.644108 69.394667 
L 292.644108 68.828719 
L 293.076718 68.717492 
L 293.076718 68.184257 
L 293.505303 68.07303 
L 293.505303 67.579052 
L 293.929939 67.467825 
L 293.929939 67.07526 
L 294.350696 66.964033 
L 294.350696 66.542025 
L 294.767646 66.430798 
L 294.767646 66.133103 
L 295.180856 66.021876 
L 295.180856 65.626039 
L 295.590393 65.514813 
L 295.590393 65.187675 
L 295.996321 65.076448 
L 295.996321 64.834366 
L 296.398705 64.723139 
L 296.398705 64.412358 
L 296.797604 64.301131 
L 296.797604 64.059049 
L 297.19308 63.947822 
L 297.19308 63.718826 
L 297.58519 63.607599 
L 297.58519 63.339346 
L 297.97399 63.228119 
L 297.97399 62.96968 
L 298.359538 62.858454 
L 298.359538 62.665442 
L 298.741885 62.554215 
L 298.741885 62.299048 
L 299.121086 62.187821 
L 299.121086 61.981724 
L 299.497191 61.870497 
L 299.497191 61.706928 
L 299.870251 61.595702 
L 299.870251 61.366705 
L 300.240314 61.255478 
L 300.240314 61.026482 
L 300.607428 60.915255 
L 300.607428 60.735329 
L 300.97164 60.624102 
L 300.97164 60.49979 
L 301.332996 60.388563 
L 301.332996 60.198823 
L 301.69154 60.087596 
L 301.69154 59.93057 
L 302.047315 59.819343 
L 302.047315 59.698302 
L 302.400363 59.587075 
L 302.400363 59.459492 
L 302.750727 59.348265 
L 302.750727 59.220681 
L 303.098446 59.109454 
L 303.098446 58.988413 
L 303.443561 58.877186 
L 303.443561 58.723432 
L 303.78611 58.612205 
L 303.78611 58.445364 
L 304.126131 58.334138 
L 304.126131 58.170569 
L 304.463661 58.059342 
L 304.463661 57.974286 
L 304.798736 57.863059 
L 304.798736 57.758375 
L 305.131392 57.647148 
L 305.131392 57.529378 
L 305.461663 57.418152 
L 305.461663 57.326553 
L 305.789583 57.215326 
L 305.789583 57.110642 
L 306.115186 56.999415 
L 306.115186 56.89146 
L 306.438504 56.780233 
L 306.438504 56.675549 
L 306.759569 56.564322 
L 306.759569 56.469452 
L 307.078411 56.358225 
L 307.078411 56.269898 
L 307.395063 56.158671 
L 307.395063 56.099786 
L 307.709553 55.988559 
L 307.709553 55.883875 
L 308.021911 55.772648 
L 308.021911 55.717035 
L 308.332165 55.605808 
L 308.332165 55.556737 
L 308.640345 55.445511 
L 308.640345 55.412797 
L 308.946476 55.30157 
L 308.946476 55.2067 
L 309.250587 55.095473 
L 309.250587 55.052945 
L 309.552703 54.941718 
L 309.552703 54.905733 
L 309.852852 54.794506 
L 309.852852 54.771607 
L 310.151058 54.66038 
L 310.151058 54.657108 
L 310.447345 54.545882 
L 310.447345 54.532796 
L 311.034266 54.418298 
L 311.034266 54.290714 
L 311.324946 54.179487 
L 311.324946 54.123874 
L 311.613803 54.012647 
L 311.613803 53.999561 
L 311.900861 53.888335 
L 311.900861 53.868706 
L 312.469666 53.754208 
L 312.469666 53.633167 
L 313.031534 53.518669 
L 313.031534 53.417256 
L 313.309919 53.306029 
L 313.309919 53.292944 
L 313.861694 53.178446 
L 313.861694 53.060676 
L 314.406938 52.946178 
L 314.406938 52.844765 
L 314.677159 52.733538 
L 314.677159 52.694282 
L 315.212893 52.579783 
L 315.212893 52.481642 
L 315.74247 52.367144 
L 315.74247 52.288631 
L 316.266028 52.174132 
L 316.266028 52.125062 
L 316.783703 52.010564 
L 316.783703 51.938593 
L 317.295626 51.824095 
L 317.295626 51.801195 
L 317.801924 51.686697 
L 317.801924 51.667069 
L 318.302718 51.552571 
L 318.302718 51.536214 
L 318.798127 51.421715 
L 318.798127 51.398816 
L 319.531394 51.281046 
L 319.531394 51.215619 
L 320.013834 51.10112 
L 320.013834 51.065135 
L 320.491275 50.950637 
L 320.491275 50.937551 
L 320.963818 50.823053 
L 320.963818 50.813239 
L 321.431565 50.698741 
L 321.431565 50.682384 
L 322.124399 50.564614 
L 322.124399 50.538443 
L 322.806969 50.420674 
L 322.806969 50.41086 
L 323.479574 50.29309 
L 323.479574 50.244019 
L 323.922583 50.129521 
L 323.922583 50.119707 
L 324.579211 50.001937 
L 324.579211 49.969224 
L 325.440406 49.848183 
L 325.440406 49.84164 
L 326.075901 49.72387 
L 326.075901 49.720599 
L 326.702749 49.602829 
L 326.702749 49.583201 
L 327.525496 49.46216 
L 327.525496 49.432718 
L 328.133056 49.314948 
L 328.133056 49.308405 
L 328.732708 49.190636 
L 328.732708 49.167736 
L 329.520293 49.046695 
L 329.520293 49.030338 
L 330.486211 48.906026 
L 330.486211 48.889669 
L 331.244625 48.768628 
L 331.244625 48.758814 
L 332.35934 48.63123 
L 332.35934 48.598516 
L 333.626643 48.467661 
L 333.626643 48.451304 
L 334.68583 48.32372 
L 334.68583 48.313906 
L 336.061234 48.17978 
L 336.061234 48.150337 
L 337.231926 48.019482 
L 337.231926 48.003125 
L 338.212232 47.875542 
L 338.212232 47.868999 
L 339.330166 47.738144 
L 339.330166 47.715244 
L 340.728768 47.577846 
L 340.728768 47.568032 
L 341.937299 47.433905 
L 341.937299 47.430634 
L 343.692659 47.283422 
L 343.692659 47.276879 
L 345.933714 47.116582 
L 345.933714 47.11331 
L 348.460696 46.943199 
L 348.460696 46.936656 
L 350.486192 46.776358 
L 350.486192 46.773087 
L 352.544969 46.609518 
L 352.544969 46.606247 
L 353.829713 46.462306 
L 353.829713 46.452492 
L 355.414677 46.298737 
L 355.414677 46.285652 
L 357.161715 46.125354 
L 357.268737 46.105726 
L 358.116073 45.971599 
L 358.220903 45.938886 
L 359.358556 45.794945 
L 359.460599 45.775317 
L 360.865973 45.621562 
L 360.964736 45.595391 
L 362.229744 45.444908 
L 362.325629 45.428551 
L 365.561746 45.209368 
L 365.561746 45.206097 
L 367.485361 45.07197 
L 373.723059 44.725204 
L 373.797791 44.718662 
L 380.331045 44.466765 
L 380.395799 44.460223 
L 383.401601 44.299925 
L 392.053533 43.940074 
L 418.300689 43.704534 
L 479.032292 43.452638 
L 479.039898 43.449367 
L 540.580099 43.285798 
L 638.927398 43.236727 
L 638.927398 43.236727 
" clip-path="url(#p57f1f2ae99)" style="fill: none; stroke: #ff7f0e; stroke-width: 1.5; stroke-linecap: square"/>
   </g>
   <g id="line2d_66">
    <path d="M 183.87339 370.371273 
L 183.87339 370.368001 
L 210.954259 370.237146 
L 210.954259 369.916551 
L 213.445277 369.805324 
L 213.445277 368.817368 
L 215.808493 368.706141 
L 215.808493 367.554616 
L 218.056384 367.443389 
L 218.056384 366.488147 
L 220.199682 366.37692 
L 220.199682 365.932013 
L 222.247691 365.820786 
L 222.247691 365.559075 
L 224.208524 365.447849 
L 224.208524 365.323536 
L 226.0893 365.212309 
L 226.0893 365.120711 
L 227.896301 365.009484 
L 227.896301 364.908071 
L 229.635096 364.796844 
L 229.635096 364.551491 
L 231.310649 364.440264 
L 231.310649 364.198182 
L 232.927398 364.086955 
L 232.927398 363.907029 
L 234.489331 363.795803 
L 234.489331 363.537364 
L 236.000044 363.426137 
L 236.000044 363.0074 
L 237.462789 362.896174 
L 237.462789 362.516694 
L 238.88052 362.405467 
L 238.88052 362.173199 
L 240.255924 362.061972 
L 240.255924 361.803533 
L 241.591456 361.692306 
L 241.591456 361.509109 
L 242.889362 361.397882 
L 242.889362 361.191786 
L 244.151704 361.080559 
L 244.151704 360.930075 
L 245.38038 360.818848 
L 245.38038 360.629109 
L 246.577139 360.517882 
L 246.577139 360.272528 
L 247.743596 360.161301 
L 247.743596 359.997733 
L 248.88125 359.886506 
L 248.88125 359.686952 
L 249.991487 359.575725 
L 249.991487 359.408884 
L 251.075598 359.297658 
L 251.075598 358.993419 
L 252.134786 358.882193 
L 252.134786 358.695724 
L 253.170169 358.584497 
L 253.170169 358.352229 
L 254.182795 358.241002 
L 254.182795 358.008735 
L 255.173642 357.897508 
L 255.173642 357.616169 
L 256.143627 357.504942 
L 256.143627 357.272675 
L 257.093612 357.161448 
L 257.093612 356.896466 
L 258.024403 356.785239 
L 258.024403 356.608585 
L 258.936762 356.497358 
L 258.936762 356.255276 
L 259.831404 356.144049 
L 259.831404 355.869253 
L 260.709004 355.758026 
L 260.709004 355.587915 
L 261.5702 355.476688 
L 261.5702 355.286948 
L 262.415593 355.175721 
L 262.415593 354.976167 
L 263.245752 354.86494 
L 263.245752 354.740628 
L 264.061218 354.629401 
L 264.061218 354.465832 
L 264.862501 354.354605 
L 264.862501 354.171408 
L 265.650086 354.060181 
L 265.650086 353.919512 
L 266.424434 353.808285 
L 266.424434 353.65453 
L 267.185982 353.543303 
L 267.185982 353.311036 
L 267.935147 353.199809 
L 267.935147 352.879214 
L 268.672325 352.767987 
L 268.672325 352.385236 
L 269.397893 352.274009 
L 269.397893 351.829101 
L 270.112211 351.717874 
L 270.112211 351.325309 
L 270.815624 351.214082 
L 270.815624 350.821517 
L 271.508458 350.71029 
L 271.508458 350.347167 
L 272.191028 350.23594 
L 272.191028 349.813932 
L 272.863632 349.702705 
L 272.863632 349.23817 
L 273.526559 349.126943 
L 273.526559 348.38434 
L 274.180082 348.273113 
L 274.180082 346.941662 
L 274.824465 346.830435 
L 274.824465 344.11192 
L 275.45996 344.000693 
L 275.45996 338.9366 
L 276.086808 338.825373 
L 276.086808 331.870423 
L 276.705241 331.759196 
L 276.705241 324.136885 
L 277.315484 324.025658 
L 277.315484 315.107881 
L 277.917749 314.996654 
L 277.917749 302.313521 
L 278.512242 302.202294 
L 278.512242 284.932689 
L 279.099162 284.821462 
L 279.099162 264.594531 
L 279.6787 264.483304 
L 279.6787 243.27496 
L 280.251038 243.163733 
L 280.251038 223.905129 
L 280.816353 223.793903 
L 280.816353 206.923405 
L 281.374816 206.812178 
L 281.374816 192.696182 
L 281.92659 192.584955 
L 281.92659 181.344499 
L 282.471835 181.233273 
L 282.471835 171.919659 
L 283.010702 171.808432 
L 283.010702 163.822998 
L 283.543339 163.711771 
L 283.543339 156.697936 
L 284.069889 156.586709 
L 284.069889 150.145366 
L 284.590489 150.034139 
L 284.590489 144.682164 
L 285.105272 144.570937 
L 285.105272 139.938666 
L 285.614367 139.827439 
L 285.614367 135.754573 
L 286.117898 135.643346 
L 286.117898 132.129886 
L 286.615985 132.018659 
L 286.615985 128.724382 
L 287.108745 128.613155 
L 287.108745 125.682 
L 287.59629 125.570773 
L 287.59629 122.763931 
L 288.078731 122.652704 
L 288.078731 120.029058 
L 288.556171 119.917832 
L 288.556171 117.084818 
L 289.028715 116.973591 
L 289.028715 114.084964 
L 289.496461 113.973737 
L 289.496461 111.058939 
L 289.959507 110.947713 
L 289.959507 107.990387 
L 290.417944 107.87916 
L 290.417944 105.003618 
L 290.871866 104.892392 
L 290.871866 102.239304 
L 291.321358 102.128077 
L 291.321358 99.592759 
L 291.766508 99.481532 
L 291.766508 97.165396 
L 292.207397 97.05417 
L 292.207397 94.767476 
L 292.644108 94.656249 
L 292.644108 92.556025 
L 293.076718 92.444798 
L 293.076718 90.69461 
L 293.505303 90.583384 
L 293.505303 88.79394 
L 293.929939 88.682713 
L 293.929939 87.102637 
L 294.350696 86.99141 
L 294.350696 85.470219 
L 294.767646 85.358993 
L 294.767646 83.988285 
L 295.180856 83.877058 
L 295.180856 82.591407 
L 295.590393 82.48018 
L 295.590393 81.237056 
L 295.996321 81.125829 
L 295.996321 79.974304 
L 296.398705 79.863077 
L 296.398705 78.84895 
L 296.797604 78.737723 
L 296.797604 77.92315 
L 297.19308 77.811923 
L 297.19308 76.99735 
L 297.58519 76.886123 
L 297.58519 76.120621 
L 297.97399 76.009394 
L 297.97399 75.322404 
L 298.359538 75.211177 
L 298.359538 74.478389 
L 298.741885 74.367162 
L 298.741885 73.595117 
L 299.121086 73.48389 
L 299.121086 72.855785 
L 299.497191 72.744558 
L 299.497191 72.054298 
L 299.870251 71.943071 
L 299.870251 71.249539 
L 300.240314 71.138312 
L 300.240314 70.631248 
L 300.607428 70.520021 
L 300.607428 70.048943 
L 300.97164 69.937716 
L 300.97164 69.532065 
L 301.332996 69.420838 
L 301.332996 69.018459 
L 301.69154 68.907232 
L 301.69154 68.521209 
L 302.047315 68.409982 
L 302.047315 67.997789 
L 302.400363 67.886562 
L 302.400363 67.52671 
L 302.750727 67.415483 
L 302.750727 67.085074 
L 303.098446 66.973847 
L 303.098446 66.656524 
L 303.443561 66.545297 
L 303.443561 66.3163 
L 303.78611 66.205073 
L 303.78611 65.930278 
L 304.126131 65.819051 
L 304.126131 65.537712 
L 304.463661 65.426485 
L 304.463661 65.161504 
L 304.798736 65.050277 
L 304.798736 64.857266 
L 305.131392 64.746039 
L 305.131392 64.503957 
L 305.461663 64.39273 
L 305.461663 64.147377 
L 305.789583 64.03615 
L 305.789583 63.761354 
L 306.115186 63.650127 
L 306.115186 63.414588 
L 306.438504 63.303361 
L 306.438504 63.044922 
L 306.759569 62.933695 
L 306.759569 62.763584 
L 307.078411 62.652357 
L 307.078411 62.429903 
L 307.395063 62.318676 
L 307.395063 62.135479 
L 307.709553 62.024252 
L 307.709553 61.821427 
L 308.021911 61.7102 
L 308.021911 61.517188 
L 308.332165 61.405962 
L 308.332165 61.209679 
L 308.640345 61.098452 
L 308.640345 60.921798 
L 308.946476 60.810571 
L 308.946476 60.669902 
L 309.250587 60.558675 
L 309.250587 60.38202 
L 309.552703 60.270793 
L 309.552703 60.117039 
L 309.852852 60.005812 
L 309.852852 59.855328 
L 310.151058 59.744102 
L 310.151058 59.560904 
L 310.447345 59.449677 
L 310.447345 59.335179 
L 310.74174 59.223952 
L 310.74174 59.145439 
L 311.034266 59.034212 
L 311.034266 58.9099 
L 311.324946 58.798673 
L 311.324946 58.693989 
L 311.613803 58.582762 
L 311.613803 58.471535 
L 311.900861 58.360309 
L 311.900861 58.271981 
L 312.186141 58.160754 
L 312.186141 58.065885 
L 312.469666 57.954658 
L 312.469666 57.905587 
L 312.751456 57.79436 
L 312.751456 57.689676 
L 313.031534 57.578449 
L 313.031534 57.529378 
L 313.309919 57.418152 
L 313.309919 57.323282 
L 313.586632 57.212055 
L 313.586632 57.133542 
L 313.861694 57.022315 
L 313.861694 56.966701 
L 314.135122 56.855475 
L 314.135122 56.770419 
L 314.406938 56.659192 
L 314.406938 56.600307 
L 314.677159 56.48908 
L 314.677159 56.420381 
L 314.945805 56.309154 
L 314.945805 56.269898 
L 315.212893 56.158671 
L 315.212893 56.125957 
L 315.478442 56.01473 
L 315.478442 55.962388 
L 315.74247 55.851161 
L 315.74247 55.818448 
L 316.004992 55.707221 
L 316.004992 55.68105 
L 316.266028 55.569823 
L 316.266028 55.56328 
L 316.525592 55.452053 
L 316.525592 55.406254 
L 316.783703 55.295027 
L 316.783703 55.236142 
L 317.040376 55.124916 
L 317.040376 55.105287 
L 317.295626 54.99406 
L 317.295626 54.967889 
L 317.801924 54.853391 
L 317.801924 54.761793 
L 318.053001 54.650566 
L 318.053001 54.624395 
L 318.551088 54.509896 
L 318.551088 54.415026 
L 318.798127 54.3038 
L 318.798127 54.290714 
L 319.043848 54.179487 
L 319.043848 54.159859 
L 319.531394 54.045361 
L 319.531394 53.937405 
L 320.013834 53.822907 
L 320.013834 53.737851 
L 320.491275 53.623353 
L 320.491275 53.518669 
L 320.728152 53.407442 
L 320.728152 53.397628 
L 320.963818 53.286401 
L 320.963818 53.263501 
L 321.198285 53.152275 
L 321.198285 53.132646 
L 321.431565 53.021419 
L 321.431565 53.011605 
L 321.663669 52.900378 
L 321.663669 52.88075 
L 322.124399 52.766252 
L 322.124399 52.668111 
L 322.580567 52.553612 
L 322.580567 52.488185 
L 323.032263 52.373686 
L 323.032263 52.301716 
L 323.479574 52.187218 
L 323.479574 52.151233 
L 323.922583 52.036735 
L 323.922583 51.981121 
L 324.361373 51.866623 
L 324.361373 51.820824 
L 324.796024 51.706325 
L 324.796024 51.67034 
L 325.226612 51.555842 
L 325.226612 51.542756 
L 325.653213 51.428258 
L 325.653213 51.389002 
L 326.075901 51.274503 
L 326.075901 51.267961 
L 326.494746 51.153462 
L 326.494746 51.133834 
L 326.909817 51.019336 
L 326.909817 51.016065 
L 327.321183 50.901566 
L 327.321183 50.885209 
L 327.728907 50.770711 
L 327.728907 50.751083 
L 328.333808 50.633313 
L 328.333808 50.607142 
L 328.93087 50.489373 
L 328.93087 50.453388 
L 329.520293 50.335618 
L 329.520293 50.296361 
L 329.909094 50.181863 
L 329.909094 50.172049 
L 330.486211 50.054279 
L 330.486211 50.011751 
L 331.244625 49.89071 
L 331.244625 49.884168 
L 331.990757 49.763127 
L 331.990757 49.733684 
L 332.542531 49.615915 
L 332.542531 49.606101 
L 333.268099 49.48506 
L 333.268099 49.445803 
L 333.804874 49.328033 
L 333.804874 49.324762 
L 334.335466 49.206992 
L 334.335466 49.187364 
L 335.03355 49.066323 
L 335.03355 49.036881 
L 335.721213 48.91584 
L 335.721213 48.902754 
L 336.398764 48.781713 
L 336.398764 48.768628 
L 337.231926 48.644315 
L 337.231926 48.614873 
L 338.050289 48.490561 
L 338.050289 48.474204 
L 339.013515 48.34662 
L 339.013515 48.330263 
L 340.575448 48.189594 
L 340.575448 48.163423 
L 341.638125 48.032568 
L 341.638125 48.022754 
L 342.823338 47.888627 
L 342.823338 47.87227 
L 343.835964 47.741415 
L 343.835964 47.734872 
L 345.659472 47.584389 
L 345.659472 47.577846 
L 347.014646 47.437177 
L 347.014646 47.424091 
L 349.103281 47.263794 
L 349.103281 47.260522 
L 351.587582 47.087139 
L 351.587582 47.080597 
L 353.482866 46.94647 
L 353.482866 46.939927 
L 355.636714 46.769816 
L 355.747333 46.750187 
L 357.161715 46.599704 
L 357.268737 46.576804 
L 358.325494 46.436135 
L 358.429849 46.413235 
L 359.256286 46.279109 
L 359.358556 46.259481 
L 360.865973 46.102455 
L 360.964736 46.09264 
L 361.940887 45.951971 
L 362.037374 45.932343 
L 363.833252 45.762231 
L 363.92586 45.745874 
L 365.561746 45.579034 
L 365.650948 45.549592 
L 367.313768 45.37948 
L 367.313768 45.363123 
L 370.228093 45.199554 
L 370.30871 45.18974 
L 375.050042 44.888773 
L 375.122654 44.869145 
L 383.280197 44.391524 
L 383.340939 44.38171 
L 384.892754 44.188698 
L 384.951408 44.165799 
L 386.733603 43.95643 
L 386.78996 43.946616 
L 392.503513 43.707806 
L 439.462073 43.416653 
L 617.724067 43.236727 
L 617.724067 43.236727 
" clip-path="url(#p57f1f2ae99)" style="fill: none; stroke: #2ca02c; stroke-width: 1.5; stroke-linecap: square"/>
   </g>
   <g id="patch_3">
    <path d="M 47.72 386.728 
L 47.72 26.88 
" style="fill: none; stroke: #000000; stroke-width: 0.8; stroke-linejoin: miter; stroke-linecap: square"/>
   </g>
   <g id="patch_4">
    <path d="M 709.2 386.728 
L 709.2 26.88 
" style="fill: none; stroke: #000000; stroke-width: 0.8; stroke-linejoin: miter; stroke-linecap: square"/>
   </g>
   <g id="patch_5">
    <path d="M 47.72 386.728 
L 709.2 386.728 
" style="fill: none; stroke: #000000; stroke-width: 0.8; stroke-linejoin: miter; stroke-linecap: square"/>
   </g>
   <g id="patch_6">
    <path d="M 47.72 26.88 
L 709.2 26.88 
" style="fill: none; stroke: #000000; stroke-width: 0.8; stroke-linejoin: miter; stroke-linecap: square"/>
   </g>
   <g id="text_15">
    <!-- Raw producer resume latency ECDF -->
    <g transform="translate(270.753438 20.88) scale(0.12 -0.12)">
     <defs>
      <path id="DejaVuSans-52" d="M 2841 2188 
Q 3044 2119 3236 1894 
Q 3428 1669 3622 1275 
L 4263 0 
L 3584 0 
L 2988 1197 
Q 2756 1666 2539 1819 
Q 2322 1972 1947 1972 
L 1259 1972 
L 1259 0 
L 628 0 
L 628 4666 
L 2053 4666 
Q 2853 4666 3247 4331 
Q 3641 3997 3641 3322 
Q 3641 2881 3436 2590 
Q 3231 2300 2841 2188 
z
M 1259 4147 
L 1259 2491 
L 2053 2491 
Q 2509 2491 2742 2702 
Q 2975 2913 2975 3322 
Q 2975 3731 2742 3939 
Q 2509 4147 2053 4147 
L 1259 4147 
z
" transform="scale(0.015625)"/>
      <path id="DejaVuSans-77" d="M 269 3500 
L 844 3500 
L 1563 769 
L 2278 3500 
L 2956 3500 
L 3675 769 
L 4391 3500 
L 4966 3500 
L 4050 0 
L 3372 0 
L 2619 2869 
L 1863 0 
L 1184 0 
L 269 3500 
z
" transform="scale(0.015625)"/>
      <path id="DejaVuSans-6f" d="M 1959 3097 
Q 1497 3097 1228 2736 
Q 959 2375 959 1747 
Q 959 1119 1226 758 
Q 1494 397 1959 397 
Q 2419 397 2687 759 
Q 2956 1122 2956 1747 
Q 2956 2369 2687 2733 
Q 2419 3097 1959 3097 
z
M 1959 3584 
Q 2709 3584 3137 3096 
Q 3566 2609 3566 1747 
Q 3566 888 3137 398 
Q 2709 -91 1959 -91 
Q 1206 -91 779 398 
Q 353 888 353 1747 
Q 353 2609 779 3096 
Q 1206 3584 1959 3584 
z
" transform="scale(0.015625)"/>
      <path id="DejaVuSans-64" d="M 2906 2969 
L 2906 4863 
L 3481 4863 
L 3481 0 
L 2906 0 
L 2906 525 
Q 2725 213 2448 61 
Q 2172 -91 1784 -91 
Q 1150 -91 751 415 
Q 353 922 353 1747 
Q 353 2572 751 3078 
Q 1150 3584 1784 3584 
Q 2172 3584 2448 3432 
Q 2725 3281 2906 2969 
z
M 947 1747 
Q 947 1113 1208 752 
Q 1469 391 1925 391 
Q 2381 391 2643 752 
Q 2906 1113 2906 1747 
Q 2906 2381 2643 2742 
Q 2381 3103 1925 3103 
Q 1469 3103 1208 2742 
Q 947 2381 947 1747 
z
" transform="scale(0.015625)"/>
      <path id="DejaVuSans-75" d="M 544 1381 
L 544 3500 
L 1119 3500 
L 1119 1403 
Q 1119 906 1312 657 
Q 1506 409 1894 409 
Q 2359 409 2629 706 
Q 2900 1003 2900 1516 
L 2900 3500 
L 3475 3500 
L 3475 0 
L 2900 0 
L 2900 538 
Q 2691 219 2414 64 
Q 2138 -91 1772 -91 
Q 1169 -91 856 284 
Q 544 659 544 1381 
z
M 1991 3584 
L 1991 3584 
z
" transform="scale(0.015625)"/>
     </defs>
     <use xlink:href="#DejaVuSans-52"/>
     <use xlink:href="#DejaVuSans-61" transform="translate(67.232422 0)"/>
     <use xlink:href="#DejaVuSans-77" transform="translate(128.511719 0)"/>
     <use xlink:href="#DejaVuSans-20" transform="translate(210.298828 0)"/>
     <use xlink:href="#DejaVuSans-70" transform="translate(242.085938 0)"/>
     <use xlink:href="#DejaVuSans-72" transform="translate(305.5625 0)"/>
     <use xlink:href="#DejaVuSans-6f" transform="translate(344.425781 0)"/>
     <use xlink:href="#DejaVuSans-64" transform="translate(405.607422 0)"/>
     <use xlink:href="#DejaVuSans-75" transform="translate(469.083984 0)"/>
     <use xlink:href="#DejaVuSans-63" transform="translate(532.462891 0)"/>
     <use xlink:href="#DejaVuSans-65" transform="translate(587.443359 0)"/>
     <use xlink:href="#DejaVuSans-72" transform="translate(648.966797 0)"/>
     <use xlink:href="#DejaVuSans-20" transform="translate(690.080078 0)"/>
     <use xlink:href="#DejaVuSans-72" transform="translate(721.867188 0)"/>
     <use xlink:href="#DejaVuSans-65" transform="translate(760.730469 0)"/>
     <use xlink:href="#DejaVuSans-73" transform="translate(822.253906 0)"/>
     <use xlink:href="#DejaVuSans-75" transform="translate(874.353516 0)"/>
     <use xlink:href="#DejaVuSans-6d" transform="translate(937.732422 0)"/>
     <use xlink:href="#DejaVuSans-65" transform="translate(1035.144531 0)"/>
     <use xlink:href="#DejaVuSans-20" transform="translate(1096.667969 0)"/>
     <use xlink:href="#DejaVuSans-6c" transform="translate(1128.455078 0)"/>
     <use xlink:href="#DejaVuSans-61" transform="translate(1156.238281 0)"/>
     <use xlink:href="#DejaVuSans-74" transform="translate(1217.517578 0)"/>
     <use xlink:href="#DejaVuSans-65" transform="translate(1256.726562 0)"/>
     <use xlink:href="#DejaVuSans-6e" transform="translate(1318.25 0)"/>
     <use xlink:href="#DejaVuSans-63" transform="translate(1381.628906 0)"/>
     <use xlink:href="#DejaVuSans-79" transform="translate(1436.609375 0)"/>
     <use xlink:href="#DejaVuSans-20" transform="translate(1495.789062 0)"/>
     <use xlink:href="#DejaVuSans-45" transform="translate(1527.576172 0)"/>
     <use xlink:href="#DejaVuSans-43" transform="translate(1590.759766 0)"/>
     <use xlink:href="#DejaVuSans-44" transform="translate(1660.583984 0)"/>
     <use xlink:href="#DejaVuSans-46" transform="translate(1737.585938 0)"/>
    </g>
   </g>
   <g id="legend_1">
    <g id="patch_7">
     <path d="M 503.945312 381.728 
L 702.2 381.728 
Q 704.2 381.728 704.2 379.728 
L 704.2 336.693625 
Q 704.2 334.693625 702.2 334.693625 
L 503.945312 334.693625 
Q 501.945312 334.693625 501.945312 336.693625 
L 501.945312 379.728 
Q 501.945312 381.728 503.945312 381.728 
z
" style="fill: #ffffff; opacity: 0.8; stroke: #cccccc; stroke-linejoin: miter"/>
    </g>
    <g id="line2d_67">
     <path d="M 505.945312 342.792063 
L 515.945312 342.792063 
L 525.945312 342.792063 
" style="fill: none; stroke: #1f77b4; stroke-width: 1.5; stroke-linecap: square"/>
    </g>
    <g id="text_16">
     <!-- Mashiro AsyncQueue (full-queue) -->
     <g transform="translate(533.945312 346.292063) scale(0.1 -0.1)">
      <defs>
       <path id="DejaVuSans-4d" d="M 628 4666 
L 1569 4666 
L 2759 1491 
L 3956 4666 
L 4897 4666 
L 4897 0 
L 4281 0 
L 4281 4097 
L 3078 897 
L 2444 897 
L 1241 4097 
L 1241 0 
L 628 0 
L 628 4666 
z
" transform="scale(0.015625)"/>
       <path id="DejaVuSans-68" d="M 3513 2113 
L 3513 0 
L 2938 0 
L 2938 2094 
Q 2938 2591 2744 2837 
Q 2550 3084 2163 3084 
Q 1697 3084 1428 2787 
Q 1159 2491 1159 1978 
L 1159 0 
L 581 0 
L 581 4863 
L 1159 4863 
L 1159 2956 
Q 1366 3272 1645 3428 
Q 1925 3584 2291 3584 
Q 2894 3584 3203 3211 
Q 3513 2838 3513 2113 
z
" transform="scale(0.015625)"/>
       <path id="DejaVuSans-41" d="M 2188 4044 
L 1331 1722 
L 3047 1722 
L 2188 4044 
z
M 1831 4666 
L 2547 4666 
L 4325 0 
L 3669 0 
L 3244 1197 
L 1141 1197 
L 716 0 
L 50 0 
L 1831 4666 
z
" transform="scale(0.015625)"/>
       <path id="DejaVuSans-51" d="M 2522 4238 
Q 1834 4238 1429 3725 
Q 1025 3213 1025 2328 
Q 1025 1447 1429 934 
Q 1834 422 2522 422 
Q 3209 422 3611 934 
Q 4013 1447 4013 2328 
Q 4013 3213 3611 3725 
Q 3209 4238 2522 4238 
z
M 3406 84 
L 4238 -825 
L 3475 -825 
L 2784 -78 
Q 2681 -84 2626 -87 
Q 2572 -91 2522 -91 
Q 1538 -91 948 567 
Q 359 1225 359 2328 
Q 359 3434 948 4092 
Q 1538 4750 2522 4750 
Q 3503 4750 4090 4092 
Q 4678 3434 4678 2328 
Q 4678 1516 4351 937 
Q 4025 359 3406 84 
z
" transform="scale(0.015625)"/>
       <path id="DejaVuSans-66" d="M 2375 4863 
L 2375 4384 
L 1825 4384 
Q 1516 4384 1395 4259 
Q 1275 4134 1275 3809 
L 1275 3500 
L 2222 3500 
L 2222 3053 
L 1275 3053 
L 1275 0 
L 697 0 
L 697 3053 
L 147 3053 
L 147 3500 
L 697 3500 
L 697 3744 
Q 697 4328 969 4595 
Q 1241 4863 1831 4863 
L 2375 4863 
z
" transform="scale(0.015625)"/>
       <path id="DejaVuSans-2d" d="M 313 2009 
L 1997 2009 
L 1997 1497 
L 313 1497 
L 313 2009 
z
" transform="scale(0.015625)"/>
       <path id="DejaVuSans-71" d="M 947 1747 
Q 947 1113 1208 752 
Q 1469 391 1925 391 
Q 2381 391 2643 752 
Q 2906 1113 2906 1747 
Q 2906 2381 2643 2742 
Q 2381 3103 1925 3103 
Q 1469 3103 1208 2742 
Q 947 2381 947 1747 
z
M 2906 525 
Q 2725 213 2448 61 
Q 2172 -91 1784 -91 
Q 1150 -91 751 415 
Q 353 922 353 1747 
Q 353 2572 751 3078 
Q 1150 3584 1784 3584 
Q 2172 3584 2448 3432 
Q 2725 3281 2906 2969 
L 2906 3500 
L 3481 3500 
L 3481 -1331 
L 2906 -1331 
L 2906 525 
z
" transform="scale(0.015625)"/>
      </defs>
      <use xlink:href="#DejaVuSans-4d"/>
      <use xlink:href="#DejaVuSans-61" transform="translate(86.279297 0)"/>
      <use xlink:href="#DejaVuSans-73" transform="translate(147.558594 0)"/>
      <use xlink:href="#DejaVuSans-68" transform="translate(199.658203 0)"/>
      <use xlink:href="#DejaVuSans-69" transform="translate(263.037109 0)"/>
      <use xlink:href="#DejaVuSans-72" transform="translate(290.820312 0)"/>
      <use xlink:href="#DejaVuSans-6f" transform="translate(329.683594 0)"/>
      <use xlink:href="#DejaVuSans-20" transform="translate(390.865234 0)"/>
      <use xlink:href="#DejaVuSans-41" transform="translate(422.652344 0)"/>
      <use xlink:href="#DejaVuSans-73" transform="translate(491.060547 0)"/>
      <use xlink:href="#DejaVuSans-79" transform="translate(543.160156 0)"/>
      <use xlink:href="#DejaVuSans-6e" transform="translate(602.339844 0)"/>
      <use xlink:href="#DejaVuSans-63" transform="translate(665.71875 0)"/>
      <use xlink:href="#DejaVuSans-51" transform="translate(720.699219 0)"/>
      <use xlink:href="#DejaVuSans-75" transform="translate(799.410156 0)"/>
      <use xlink:href="#DejaVuSans-65" transform="translate(862.789062 0)"/>
      <use xlink:href="#DejaVuSans-75" transform="translate(924.3125 0)"/>
      <use xlink:href="#DejaVuSans-65" transform="translate(987.691406 0)"/>
      <use xlink:href="#DejaVuSans-20" transform="translate(1049.214844 0)"/>
      <use xlink:href="#DejaVuSans-28" transform="translate(1081.001953 0)"/>
      <use xlink:href="#DejaVuSans-66" transform="translate(1120.015625 0)"/>
      <use xlink:href="#DejaVuSans-75" transform="translate(1155.220703 0)"/>
      <use xlink:href="#DejaVuSans-6c" transform="translate(1218.599609 0)"/>
      <use xlink:href="#DejaVuSans-6c" transform="translate(1246.382812 0)"/>
      <use xlink:href="#DejaVuSans-2d" transform="translate(1274.166016 0)"/>
      <use xlink:href="#DejaVuSans-71" transform="translate(1310.25 0)"/>
      <use xlink:href="#DejaVuSans-75" transform="translate(1373.726562 0)"/>
      <use xlink:href="#DejaVuSans-65" transform="translate(1437.105469 0)"/>
      <use xlink:href="#DejaVuSans-75" transform="translate(1498.628906 0)"/>
      <use xlink:href="#DejaVuSans-65" transform="translate(1562.007812 0)"/>
      <use xlink:href="#DejaVuSans-29" transform="translate(1623.53125 0)"/>
     </g>
    </g>
    <g id="line2d_68">
     <path d="M 505.945312 357.470188 
L 515.945312 357.470188 
L 525.945312 357.470188 
" style="fill: none; stroke: #ff7f0e; stroke-width: 1.5; stroke-linecap: square"/>
    </g>
    <g id="text_17">
     <!-- condition variable (full-queue) -->
     <g transform="translate(533.945312 360.970188) scale(0.1 -0.1)">
      <defs>
       <path id="DejaVuSans-76" d="M 191 3500 
L 800 3500 
L 1894 563 
L 2988 3500 
L 3597 3500 
L 2284 0 
L 1503 0 
L 191 3500 
z
" transform="scale(0.015625)"/>
       <path id="DejaVuSans-62" d="M 3116 1747 
Q 3116 2381 2855 2742 
Q 2594 3103 2138 3103 
Q 1681 3103 1420 2742 
Q 1159 2381 1159 1747 
Q 1159 1113 1420 752 
Q 1681 391 2138 391 
Q 2594 391 2855 752 
Q 3116 1113 3116 1747 
z
M 1159 2969 
Q 1341 3281 1617 3432 
Q 1894 3584 2278 3584 
Q 2916 3584 3314 3078 
Q 3713 2572 3713 1747 
Q 3713 922 3314 415 
Q 2916 -91 2278 -91 
Q 1894 -91 1617 61 
Q 1341 213 1159 525 
L 1159 0 
L 581 0 
L 581 4863 
L 1159 4863 
L 1159 2969 
z
" transform="scale(0.015625)"/>
      </defs>
      <use xlink:href="#DejaVuSans-63"/>
      <use xlink:href="#DejaVuSans-6f" transform="translate(54.980469 0)"/>
      <use xlink:href="#DejaVuSans-6e" transform="translate(116.162109 0)"/>
      <use xlink:href="#DejaVuSans-64" transform="translate(179.541016 0)"/>
      <use xlink:href="#DejaVuSans-69" transform="translate(243.017578 0)"/>
      <use xlink:href="#DejaVuSans-74" transform="translate(270.800781 0)"/>
      <use xlink:href="#DejaVuSans-69" transform="translate(310.009766 0)"/>
      <use xlink:href="#DejaVuSans-6f" transform="translate(337.792969 0)"/>
      <use xlink:href="#DejaVuSans-6e" transform="translate(398.974609 0)"/>
      <use xlink:href="#DejaVuSans-20" transform="translate(462.353516 0)"/>
      <use xlink:href="#DejaVuSans-76" transform="translate(494.140625 0)"/>
      <use xlink:href="#DejaVuSans-61" transform="translate(553.320312 0)"/>
      <use xlink:href="#DejaVuSans-72" transform="translate(614.599609 0)"/>
      <use xlink:href="#DejaVuSans-69" transform="translate(655.712891 0)"/>
      <use xlink:href="#DejaVuSans-61" transform="translate(683.496094 0)"/>
      <use xlink:href="#DejaVuSans-62" transform="translate(744.775391 0)"/>
      <use xlink:href="#DejaVuSans-6c" transform="translate(808.251953 0)"/>
      <use xlink:href="#DejaVuSans-65" transform="translate(836.035156 0)"/>
      <use xlink:href="#DejaVuSans-20" transform="translate(897.558594 0)"/>
      <use xlink:href="#DejaVuSans-28" transform="translate(929.345703 0)"/>
      <use xlink:href="#DejaVuSans-66" transform="translate(968.359375 0)"/>
      <use xlink:href="#DejaVuSans-75" transform="translate(1003.564453 0)"/>
      <use xlink:href="#DejaVuSans-6c" transform="translate(1066.943359 0)"/>
      <use xlink:href="#DejaVuSans-6c" transform="translate(1094.726562 0)"/>
      <use xlink:href="#DejaVuSans-2d" transform="translate(1122.509766 0)"/>
      <use xlink:href="#DejaVuSans-71" transform="translate(1158.59375 0)"/>
      <use xlink:href="#DejaVuSans-75" transform="translate(1222.070312 0)"/>
      <use xlink:href="#DejaVuSans-65" transform="translate(1285.449219 0)"/>
      <use xlink:href="#DejaVuSans-75" transform="translate(1346.972656 0)"/>
      <use xlink:href="#DejaVuSans-65" transform="translate(1410.351562 0)"/>
      <use xlink:href="#DejaVuSans-29" transform="translate(1471.875 0)"/>
     </g>
    </g>
    <g id="line2d_69">
     <path d="M 505.945312 372.148313 
L 515.945312 372.148313 
L 525.945312 372.148313 
" style="fill: none; stroke: #2ca02c; stroke-width: 1.5; stroke-linecap: square"/>
    </g>
    <g id="text_18">
     <!-- oneTBB bounded (full-queue) -->
     <g transform="translate(533.945312 375.648313) scale(0.1 -0.1)">
      <defs>
       <path id="DejaVuSans-54" d="M -19 4666 
L 3928 4666 
L 3928 4134 
L 2272 4134 
L 2272 0 
L 1638 0 
L 1638 4134 
L -19 4134 
L -19 4666 
z
" transform="scale(0.015625)"/>
       <path id="DejaVuSans-42" d="M 1259 2228 
L 1259 519 
L 2272 519 
Q 2781 519 3026 730 
Q 3272 941 3272 1375 
Q 3272 1813 3026 2020 
Q 2781 2228 2272 2228 
L 1259 2228 
z
M 1259 4147 
L 1259 2741 
L 2194 2741 
Q 2656 2741 2882 2914 
Q 3109 3088 3109 3444 
Q 3109 3797 2882 3972 
Q 2656 4147 2194 4147 
L 1259 4147 
z
M 628 4666 
L 2241 4666 
Q 2963 4666 3353 4366 
Q 3744 4066 3744 3513 
Q 3744 3084 3544 2831 
Q 3344 2578 2956 2516 
Q 3422 2416 3680 2098 
Q 3938 1781 3938 1306 
Q 3938 681 3513 340 
Q 3088 0 2303 0 
L 628 0 
L 628 4666 
z
" transform="scale(0.015625)"/>
      </defs>
      <use xlink:href="#DejaVuSans-6f"/>
      <use xlink:href="#DejaVuSans-6e" transform="translate(61.181641 0)"/>
      <use xlink:href="#DejaVuSans-65" transform="translate(124.560547 0)"/>
      <use xlink:href="#DejaVuSans-54" transform="translate(186.083984 0)"/>
      <use xlink:href="#DejaVuSans-42" transform="translate(247.167969 0)"/>
      <use xlink:href="#DejaVuSans-42" transform="translate(315.771484 0)"/>
      <use xlink:href="#DejaVuSans-20" transform="translate(384.375 0)"/>
      <use xlink:href="#DejaVuSans-62" transform="translate(416.162109 0)"/>
      <use xlink:href="#DejaVuSans-6f" transform="translate(479.638672 0)"/>
      <use xlink:href="#DejaVuSans-75" transform="translate(540.820312 0)"/>
      <use xlink:href="#DejaVuSans-6e" transform="translate(604.199219 0)"/>
      <use xlink:href="#DejaVuSans-64" transform="translate(667.578125 0)"/>
      <use xlink:href="#DejaVuSans-65" transform="translate(731.054688 0)"/>
      <use xlink:href="#DejaVuSans-64" transform="translate(792.578125 0)"/>
      <use xlink:href="#DejaVuSans-20" transform="translate(856.054688 0)"/>
      <use xlink:href="#DejaVuSans-28" transform="translate(887.841797 0)"/>
      <use xlink:href="#DejaVuSans-66" transform="translate(926.855469 0)"/>
      <use xlink:href="#DejaVuSans-75" transform="translate(962.060547 0)"/>
      <use xlink:href="#DejaVuSans-6c" transform="translate(1025.439453 0)"/>
      <use xlink:href="#DejaVuSans-6c" transform="translate(1053.222656 0)"/>
      <use xlink:href="#DejaVuSans-2d" transform="translate(1081.005859 0)"/>
      <use xlink:href="#DejaVuSans-71" transform="translate(1117.089844 0)"/>
      <use xlink:href="#DejaVuSans-75" transform="translate(1180.566406 0)"/>
      <use xlink:href="#DejaVuSans-65" transform="translate(1243.945312 0)"/>
      <use xlink:href="#DejaVuSans-75" transform="translate(1305.46875 0)"/>
      <use xlink:href="#DejaVuSans-65" transform="translate(1368.847656 0)"/>
      <use xlink:href="#DejaVuSans-29" transform="translate(1430.371094 0)"/>
     </g>
    </g>
   </g>
  </g>
 </g>
 <defs>
  <clipPath id="p57f1f2ae99">
   <rect x="47.72" y="26.88" width="661.48" height="359.848"/>
  </clipPath>
 </defs>
</svg>
